<svg id="svg" version="1.1" xmlns="http://www.w3.org/2000/svg" xmlns:xlink="http://www.w3.org/1999/xlink" width="400" height="400" viewBox="0, 0, 400,400"><g id="svgg"><path id="path0" d="M4.400 2.804 L 4.400 5.609 2.200 6.688 L 0.000 7.767 0.000 15.483 C 0.000 19.727,0.159 23.200,0.353 23.200 C 0.547 23.200,2.732 27.205,5.208 32.100 C 7.684 36.995,9.842 41.180,10.003 41.400 C 10.164 41.620,13.317 47.740,17.009 55.000 C 20.701 62.260,23.850 68.380,24.006 68.600 C 24.163 68.820,27.312 74.940,31.005 82.200 C 34.698 89.460,37.848 95.580,38.006 95.800 C 38.163 96.020,41.403 102.320,45.207 109.800 C 49.010 117.280,52.251 123.580,52.409 123.800 C 52.567 124.020,55.717 130.140,59.409 137.400 C 63.101 144.660,66.250 150.780,66.406 151.000 C 66.563 151.220,69.712 157.340,73.405 164.600 C 77.098 171.860,80.248 177.980,80.405 178.200 C 80.561 178.420,83.712 184.540,87.405 191.800 C 91.099 199.060,94.250 205.180,94.407 205.400 C 94.564 205.620,97.804 211.920,101.607 219.400 C 105.409 226.880,108.649 233.180,108.806 233.400 C 108.963 233.620,112.112 239.740,115.805 247.000 C 119.498 254.260,122.648 260.380,122.805 260.600 C 122.961 260.820,126.112 266.940,129.805 274.200 C 133.499 281.460,136.649 287.580,136.805 287.800 C 136.961 288.020,140.018 293.960,143.598 301.000 C 147.178 308.040,150.600 314.700,151.202 315.800 C 151.804 316.900,154.683 322.480,157.599 328.200 C 160.515 333.920,163.935 340.580,165.199 343.000 C 166.463 345.420,169.343 351.000,171.600 355.400 C 176.788 365.516,182.199 376.024,185.400 382.200 C 186.768 384.840,189.373 389.925,191.189 393.500 L 194.490 400.000 197.612 400.000 C 199.329 400.000,200.793 399.856,200.867 399.680 C 201.081 399.165,204.834 397.200,205.602 397.200 C 206.457 397.200,210.947 399.203,211.133 399.667 C 211.207 399.850,212.557 399.989,214.133 399.976 L 217.000 399.952 219.898 393.876 C 221.491 390.534,225.766 381.700,229.398 374.244 C 233.029 366.789,236.000 360.639,236.000 360.578 C 236.000 360.517,238.970 354.399,242.600 346.982 C 246.230 339.565,249.200 333.446,249.200 333.384 C 249.200 333.322,252.170 327.201,255.800 319.782 C 259.430 312.363,262.400 306.242,262.400 306.180 C 262.400 306.118,265.370 299.999,269.000 292.582 C 272.630 285.165,275.600 279.047,275.600 278.986 C 275.600 278.925,278.660 272.626,282.400 264.988 C 286.140 257.350,289.200 251.049,289.200 250.986 C 289.200 250.923,292.170 244.801,295.800 237.382 C 299.430 229.963,302.400 223.842,302.400 223.780 C 302.400 223.718,305.370 217.599,309.000 210.182 C 312.630 202.765,315.600 196.646,315.600 196.584 C 315.600 196.522,318.570 190.401,322.200 182.982 C 325.830 175.563,328.800 169.442,328.800 169.380 C 328.800 169.318,331.770 163.199,335.400 155.782 C 339.030 148.365,342.000 142.247,342.000 142.186 C 342.000 142.125,345.060 135.826,348.800 128.188 C 352.540 120.550,355.600 114.249,355.600 114.186 C 355.600 114.123,358.570 108.001,362.200 100.582 C 365.830 93.163,368.800 87.042,368.800 86.980 C 368.800 86.918,371.770 80.799,375.400 73.382 C 379.030 65.965,382.000 59.850,382.000 59.794 C 382.000 59.737,384.712 54.136,388.027 47.346 C 391.342 40.556,395.240 32.525,396.690 29.500 C 398.139 26.475,399.477 24.000,399.663 24.000 C 399.848 24.000,400.000 20.350,400.000 15.889 L 400.000 7.779 397.900 6.775 L 395.800 5.772 395.682 2.886 L 395.565 0.000 199.982 0.000 L 4.400 0.000 4.400 2.804 M377.423 16.916 C 377.615 17.417,375.315 22.313,364.154 45.159 C 361.209 51.186,358.800 56.170,358.800 56.233 C 358.800 56.297,355.830 62.415,352.200 69.830 C 348.570 77.245,345.600 83.361,345.600 83.422 C 345.600 83.483,342.630 89.601,339.000 97.018 C 335.370 104.435,332.400 110.554,332.400 110.616 C 332.400 110.678,329.430 116.799,325.800 124.218 C 322.170 131.637,319.200 137.758,319.200 137.820 C 319.200 137.882,316.230 144.001,312.600 151.418 C 308.970 158.835,306.000 164.954,306.000 165.016 C 306.000 165.078,303.030 171.199,299.400 178.618 C 295.770 186.037,292.800 192.158,292.800 192.220 C 292.800 192.282,289.830 198.401,286.200 205.818 C 282.570 213.235,279.600 219.356,279.600 219.419 C 279.600 219.483,276.540 225.785,272.800 233.423 C 269.060 241.062,266.000 247.365,266.000 247.430 C 266.000 247.496,263.030 253.615,259.400 261.030 C 255.770 268.445,252.800 274.561,252.800 274.622 C 252.800 274.683,249.830 280.801,246.200 288.218 C 242.570 295.635,239.600 301.754,239.600 301.816 C 239.600 301.878,236.630 307.999,233.000 315.418 C 229.370 322.837,226.400 328.950,226.400 329.001 C 226.400 329.052,224.038 333.933,221.152 339.847 C 214.232 354.025,209.473 363.843,207.553 367.900 C 206.689 369.727,205.741 371.200,205.430 371.200 C 205.097 371.200,202.545 366.667,199.179 360.100 C 192.040 346.171,187.511 337.366,183.801 330.200 C 182.206 327.120,178.605 320.100,175.798 314.600 C 172.992 309.100,170.113 303.520,169.400 302.200 C 168.686 300.880,165.262 294.220,161.790 287.400 C 158.318 280.580,155.348 274.820,155.192 274.600 C 155.035 274.380,151.796 268.080,147.993 260.600 C 144.191 253.120,140.951 246.820,140.794 246.600 C 140.637 246.380,137.488 240.260,133.795 233.000 C 130.102 225.740,126.952 219.620,126.796 219.400 C 126.639 219.180,123.400 212.880,119.597 205.400 C 115.793 197.920,112.553 191.620,112.396 191.400 C 112.239 191.180,109.088 185.060,105.395 177.800 C 101.701 170.540,98.550 164.420,98.393 164.200 C 98.236 163.980,94.996 157.680,91.193 150.200 C 87.391 142.720,84.151 136.420,83.994 136.200 C 83.837 135.980,80.688 129.860,76.995 122.600 C 73.302 115.340,70.153 109.220,69.997 109.000 C 69.842 108.780,66.875 103.020,63.404 96.200 C 59.933 89.380,56.600 82.900,55.997 81.800 C 55.395 80.700,52.426 74.940,49.399 69.000 C 46.373 63.060,42.863 56.220,41.599 53.800 C 40.336 51.380,37.593 46.070,35.504 42.000 C 33.415 37.930,29.706 30.718,27.261 25.972 C 23.843 19.339,22.924 17.236,23.288 16.872 C 24.013 16.147,377.145 16.191,377.423 16.916 M51.867 30.267 C 51.720 30.413,51.600 35.453,51.600 41.467 L 51.600 52.400 119.151 52.400 C 172.717 52.400,186.783 52.504,187.093 52.900 C 187.326 53.198,187.998 72.960,188.756 101.800 C 189.456 128.420,190.198 156.140,190.404 163.400 C 190.611 170.660,190.966 183.530,191.193 192.000 C 191.419 200.470,191.789 214.060,192.014 222.200 C 193.271 267.686,194.400 310.906,194.400 313.527 L 194.400 316.528 205.273 316.271 C 211.253 316.130,216.311 315.849,216.514 315.646 C 216.738 315.422,216.705 308.731,216.430 298.539 C 216.182 289.333,215.802 275.320,215.587 267.400 C 215.371 259.480,215.031 246.970,214.830 239.600 C 211.399 113.462,209.883 53.670,210.104 53.100 C 210.361 52.437,213.945 52.400,277.587 52.400 L 344.800 52.400 344.800 41.200 L 344.800 30.000 198.467 30.000 C 117.983 30.000,52.013 30.120,51.867 30.267 " stroke="none" fill="#0cc4dc" fill-rule="evenodd"></path><path id="path1" d="M0.000 3.395 L 0.000 6.790 1.800 5.915 L 3.600 5.041 3.600 2.520 L 3.600 0.000 1.800 0.000 L 0.000 0.000 0.000 3.395 M396.400 2.554 L 396.400 5.109 397.900 5.807 C 398.725 6.192,399.535 6.583,399.700 6.677 C 399.865 6.770,400.000 5.307,400.000 3.424 L 400.000 0.000 398.200 0.000 L 396.400 0.000 396.400 2.554 M91.700 17.500 C 45.717 17.570,24.400 17.733,24.400 18.016 C 24.400 18.243,26.020 21.572,28.000 25.415 C 29.980 29.257,33.243 35.595,35.250 39.500 C 37.258 43.405,40.386 49.480,42.201 53.000 C 44.016 56.520,47.120 62.550,49.099 66.400 C 58.338 84.374,60.319 88.226,63.399 94.200 C 65.214 97.720,68.342 103.795,70.350 107.700 C 72.357 111.605,75.620 117.950,77.600 121.800 C 79.580 125.650,82.820 131.950,84.800 135.800 C 86.780 139.650,90.043 145.995,92.050 149.900 C 94.058 153.805,97.208 159.925,99.050 163.500 C 100.893 167.075,103.907 172.925,105.750 176.500 C 107.592 180.075,110.742 186.195,112.750 190.100 C 114.757 194.005,118.020 200.350,120.000 204.200 C 121.980 208.050,125.220 214.350,127.200 218.200 C 129.180 222.050,132.443 228.395,134.450 232.300 C 136.458 236.205,139.586 242.280,141.401 245.800 C 143.216 249.320,146.366 255.440,148.401 259.400 C 150.437 263.360,153.586 269.480,155.400 273.000 C 157.213 276.520,160.340 282.595,162.349 286.500 C 164.357 290.405,167.620 296.750,169.600 300.600 C 171.580 304.450,174.820 310.750,176.800 314.600 C 178.780 318.450,181.997 324.705,183.949 328.500 C 185.901 332.295,189.255 338.820,191.403 343.000 C 193.550 347.180,196.519 352.940,198.000 355.800 C 199.481 358.660,201.615 362.800,202.743 365.000 C 205.644 370.659,205.371 370.445,206.520 367.960 C 207.069 366.772,209.313 362.110,211.507 357.600 C 213.700 353.090,216.937 346.430,218.699 342.800 C 220.461 339.170,223.477 332.960,225.401 329.000 C 227.326 325.040,230.318 318.875,232.050 315.300 C 233.783 311.725,236.617 305.875,238.350 302.300 C 240.082 298.725,243.052 292.605,244.950 288.700 C 246.847 284.795,249.930 278.450,251.800 274.600 C 253.670 270.750,256.752 264.405,258.649 260.500 C 260.546 256.595,263.494 250.520,265.200 247.000 C 266.907 243.480,269.743 237.630,271.503 234.000 C 273.263 230.370,276.276 224.160,278.200 220.200 C 280.123 216.240,283.205 209.895,285.048 206.100 C 286.892 202.305,289.953 196.005,291.850 192.100 C 293.748 188.195,296.718 182.075,298.450 178.500 C 300.183 174.925,303.017 169.075,304.750 165.500 C 307.680 159.454,309.190 156.345,318.299 137.600 C 320.169 133.750,323.118 127.675,324.850 124.100 C 326.583 120.525,329.417 114.675,331.150 111.100 C 332.882 107.525,335.852 101.405,337.750 97.500 C 340.994 90.825,343.007 86.680,351.448 69.300 C 355.236 61.501,360.252 51.159,364.299 42.800 C 365.738 39.830,369.049 33.018,371.657 27.661 C 374.266 22.305,376.400 17.760,376.400 17.561 C 376.400 17.229,283.040 17.209,91.700 17.500 M0.000 212.133 L 0.000 400.000 96.600 400.000 C 154.749 400.000,193.200 399.854,193.200 399.634 C 193.200 399.433,192.505 397.948,191.656 396.334 C 190.807 394.720,188.354 389.980,186.205 385.800 C 184.057 381.620,180.679 375.050,178.699 371.200 C 176.720 367.350,173.616 361.320,171.801 357.800 C 169.986 354.280,166.858 348.205,164.850 344.300 C 162.843 340.395,159.580 334.050,157.600 330.200 C 155.620 326.350,152.357 320.005,150.349 316.100 C 148.340 312.195,145.190 306.075,143.349 302.500 C 141.507 298.925,138.493 293.075,136.651 289.500 C 134.810 285.925,131.660 279.805,129.651 275.900 C 127.643 271.995,124.380 265.650,122.400 261.800 C 120.420 257.950,117.180 251.650,115.200 247.800 C 113.220 243.950,109.957 237.605,107.949 233.700 C 105.940 229.795,102.790 223.675,100.949 220.100 C 99.107 216.525,96.093 210.675,94.251 207.100 C 92.410 203.525,89.260 197.405,87.251 193.500 C 85.243 189.595,81.980 183.250,80.000 179.400 C 78.020 175.550,74.757 169.205,72.750 165.300 C 70.742 161.395,67.614 155.320,65.799 151.800 C 63.984 148.280,60.834 142.160,58.799 138.200 C 56.763 134.240,53.614 128.120,51.800 124.600 C 49.987 121.080,46.860 115.005,44.851 111.100 C 42.843 107.195,39.580 100.850,37.600 97.000 C 35.620 93.150,32.357 86.805,30.350 82.900 C 28.342 78.995,25.214 72.920,23.399 69.400 C 21.584 65.880,18.480 59.850,16.501 56.000 C 14.522 52.150,11.280 45.850,9.296 42.000 C 7.313 38.150,4.490 32.666,3.025 29.813 C 1.559 26.961,0.279 24.546,0.180 24.447 C 0.081 24.348,0.000 108.807,0.000 212.133 M397.218 30.500 C 395.805 33.415,392.593 40.030,390.081 45.200 C 387.569 50.370,384.384 56.940,383.003 59.800 C 381.622 62.660,378.873 68.330,376.894 72.400 C 370.671 85.198,366.405 93.984,363.200 100.600 C 361.495 104.120,358.526 110.240,356.601 114.200 C 354.677 118.160,351.706 124.280,350.000 127.800 C 348.294 131.320,345.346 137.395,343.449 141.300 C 341.552 145.205,338.470 151.550,336.600 155.400 C 334.730 159.250,331.647 165.595,329.750 169.500 C 327.852 173.405,324.882 179.525,323.150 183.100 C 312.866 204.322,314.286 201.395,303.301 224.000 C 301.431 227.850,298.505 233.880,296.800 237.400 C 295.095 240.920,292.126 247.040,290.201 251.000 C 288.277 254.960,285.306 261.080,283.600 264.600 C 281.894 268.120,278.924 274.240,277.000 278.200 C 275.077 282.160,271.995 288.505,270.152 292.300 C 268.308 296.095,265.247 302.395,263.350 306.300 C 261.452 310.205,258.482 316.325,256.750 319.900 C 255.017 323.475,252.183 329.325,250.450 332.900 C 248.718 336.475,245.748 342.595,243.850 346.500 C 241.953 350.405,238.870 356.750,237.000 360.600 C 235.130 364.450,232.048 370.795,230.151 374.700 C 228.254 378.605,225.262 384.770,223.501 388.400 C 221.741 392.030,219.783 396.067,219.150 397.371 C 218.518 398.675,218.000 399.800,218.000 399.871 C 218.000 399.942,258.950 400.000,309.000 400.000 L 400.000 400.000 400.000 212.600 C 400.000 109.530,399.952 25.200,399.894 25.200 C 399.836 25.200,398.632 27.585,397.218 30.500 M345.520 29.680 C 346.028 30.188,346.246 51.292,345.757 52.567 C 345.537 53.141,339.204 53.200,278.094 53.200 L 210.673 53.200 210.953 60.900 C 211.107 65.135,211.407 75.260,211.621 83.400 C 212.374 112.141,212.936 133.149,214.000 172.400 C 214.709 198.562,215.187 216.325,215.594 231.600 C 215.813 239.850,216.170 253.170,216.387 261.200 C 216.604 269.230,216.958 282.901,217.174 291.581 C 217.390 300.260,217.688 309.269,217.835 311.600 C 218.213 317.573,218.892 317.199,207.671 317.203 C 202.682 317.205,197.700 317.304,196.600 317.423 C 193.323 317.776,193.519 318.610,193.149 302.739 C 192.968 294.962,192.634 281.760,192.408 273.400 C 192.181 265.040,191.819 251.540,191.602 243.400 C 191.386 235.260,191.027 221.895,190.804 213.700 C 190.582 205.505,190.221 192.185,190.002 184.100 C 189.783 176.015,189.422 162.650,189.198 154.400 C 188.975 146.150,188.609 132.560,188.386 124.200 C 188.162 115.840,187.805 102.610,187.592 94.800 C 187.378 86.990,187.106 75.200,186.987 68.600 C 186.868 62.000,186.676 55.836,186.561 54.901 L 186.351 53.202 118.676 53.101 L 51.000 53.000 50.894 41.605 C 50.835 35.338,50.874 29.983,50.981 29.705 C 51.258 28.983,344.798 28.958,345.520 29.680 M203.400 399.031 L 201.800 399.987 205.700 399.993 C 210.174 400.001,210.217 399.978,207.804 398.844 C 205.622 397.818,205.416 397.827,203.400 399.031 " stroke="none" fill="#fbfcfc" fill-rule="evenodd"></path><path id="path2" d="M23.450 17.119 C 23.342 17.295,23.438 17.700,23.664 18.019 C 24.000 18.493,24.034 18.471,23.851 17.901 C 23.637 17.236,29.908 17.196,150.313 17.100 L 277.000 16.999 150.324 16.899 C 80.652 16.845,23.558 16.944,23.450 17.119 M345.200 41.320 L 345.399 53.000 345.506 41.626 C 345.565 35.371,345.475 30.115,345.306 29.946 C 345.138 29.777,345.090 34.895,345.200 41.320 M119.478 53.099 L 186.756 53.202 186.911 54.901 L 187.065 56.600 187.033 54.800 L 187.000 53.000 119.600 52.998 L 52.200 52.996 119.478 53.099 M243.932 53.100 C 262.484 53.157,292.724 53.157,311.132 53.100 C 329.539 53.042,314.360 52.995,277.400 52.995 C 240.440 52.995,225.379 53.042,243.932 53.100 M210.550 65.800 C 210.551 68.220,210.616 69.158,210.696 67.885 C 210.776 66.612,210.775 64.632,210.694 63.485 C 210.614 62.338,210.549 63.380,210.550 65.800 M187.353 72.600 C 187.353 75.240,187.418 76.268,187.497 74.884 C 187.575 73.501,187.574 71.341,187.495 70.084 C 187.416 68.828,187.352 69.960,187.353 72.600 M210.950 75.800 C 210.951 78.220,211.016 79.158,211.096 77.885 C 211.176 76.612,211.175 74.632,211.094 73.485 C 211.014 72.338,210.949 73.380,210.950 75.800 M187.753 82.600 C 187.753 85.240,187.818 86.268,187.897 84.884 C 187.975 83.501,187.974 81.341,187.895 80.084 C 187.816 78.828,187.752 79.960,187.753 82.600 M211.350 95.400 C 211.351 97.820,211.416 98.758,211.496 97.485 C 211.576 96.212,211.575 94.232,211.494 93.085 C 211.414 91.938,211.349 92.980,211.350 95.400 M188.153 102.200 C 188.153 104.840,188.218 105.868,188.297 104.484 C 188.375 103.101,188.374 100.941,188.295 99.684 C 188.216 98.428,188.152 99.560,188.153 102.200 M211.750 105.400 C 211.751 107.820,211.816 108.758,211.896 107.485 C 211.976 106.212,211.975 104.232,211.894 103.085 C 211.814 101.938,211.749 102.980,211.750 105.400 M188.553 112.200 C 188.553 114.840,188.618 115.868,188.697 114.484 C 188.775 113.101,188.774 110.941,188.695 109.684 C 188.616 108.428,188.552 109.560,188.553 112.200 M212.150 125.000 C 212.151 127.420,212.216 128.358,212.296 127.085 C 212.376 125.812,212.375 123.832,212.294 122.685 C 212.214 121.538,212.149 122.580,212.150 125.000 M188.950 132.200 C 188.951 134.620,189.016 135.558,189.096 134.285 C 189.176 133.012,189.175 131.032,189.094 129.885 C 189.014 128.738,188.949 129.780,188.950 132.200 M212.550 135.000 C 212.551 137.420,212.616 138.358,212.696 137.085 C 212.776 135.812,212.775 133.832,212.694 132.685 C 212.614 131.538,212.549 132.580,212.550 135.000 M189.350 142.200 C 189.351 144.620,189.416 145.558,189.496 144.285 C 189.576 143.012,189.575 141.032,189.494 139.885 C 189.414 138.738,189.349 139.780,189.350 142.200 M212.953 155.000 C 212.953 157.640,213.018 158.668,213.097 157.284 C 213.175 155.901,213.174 153.741,213.095 152.484 C 213.016 151.228,212.952 152.360,212.953 155.000 M189.750 161.800 C 189.751 164.220,189.816 165.158,189.896 163.885 C 189.976 162.612,189.975 160.632,189.894 159.485 C 189.814 158.338,189.749 159.380,189.750 161.800 M213.353 165.000 C 213.353 167.640,213.418 168.668,213.497 167.284 C 213.575 165.901,213.574 163.741,213.495 162.484 C 213.416 161.228,213.352 162.360,213.353 165.000 M190.150 171.800 C 190.151 174.220,190.216 175.158,190.296 173.885 C 190.376 172.612,190.375 170.632,190.294 169.485 C 190.214 168.338,190.149 169.380,190.150 171.800 M213.753 184.600 C 213.753 187.240,213.818 188.268,213.897 186.884 C 213.975 185.501,213.974 183.341,213.895 182.084 C 213.816 180.828,213.752 181.960,213.753 184.600 M190.553 191.800 C 190.553 194.440,190.618 195.468,190.697 194.084 C 190.775 192.701,190.774 190.541,190.695 189.284 C 190.616 188.028,190.552 189.160,190.553 191.800 M214.153 194.600 C 214.153 197.240,214.218 198.268,214.297 196.884 C 214.375 195.501,214.374 193.341,214.295 192.084 C 214.216 190.828,214.152 191.960,214.153 194.600 M190.950 201.400 C 190.951 203.820,191.016 204.758,191.096 203.485 C 191.176 202.212,191.175 200.232,191.094 199.085 C 191.014 197.938,190.949 198.980,190.950 201.400 M214.550 214.600 C 214.551 217.020,214.616 217.958,214.696 216.685 C 214.776 215.412,214.775 213.432,214.694 212.285 C 214.614 211.138,214.549 212.180,214.550 214.600 M191.353 221.400 C 191.353 224.040,191.418 225.068,191.497 223.684 C 191.575 222.301,191.574 220.141,191.495 218.884 C 191.416 217.628,191.352 218.760,191.353 221.400 M214.953 224.200 C 214.953 226.840,215.018 227.868,215.097 226.484 C 215.175 225.101,215.174 222.941,215.095 221.684 C 215.016 220.428,214.952 221.560,214.953 224.200 M191.750 231.000 C 191.751 233.420,191.816 234.358,191.896 233.085 C 191.976 231.812,191.975 229.832,191.894 228.685 C 191.814 227.538,191.749 228.580,191.750 231.000 M215.350 244.200 C 215.351 246.620,215.416 247.558,215.496 246.285 C 215.576 245.012,215.575 243.032,215.494 241.885 C 215.414 240.738,215.349 241.780,215.350 244.200 M192.153 251.000 C 192.153 253.640,192.218 254.668,192.297 253.284 C 192.375 251.901,192.374 249.741,192.295 248.484 C 192.216 247.228,192.152 248.360,192.153 251.000 M215.753 253.800 C 215.753 256.440,215.818 257.468,215.897 256.084 C 215.975 254.701,215.974 252.541,215.895 251.284 C 215.816 250.028,215.752 251.160,215.753 253.800 M192.553 261.000 C 192.553 263.640,192.618 264.668,192.697 263.284 C 192.775 261.901,192.774 259.741,192.695 258.484 C 192.616 257.228,192.552 258.360,192.553 261.000 M216.150 273.800 C 216.151 276.220,216.216 277.158,216.296 275.885 C 216.376 274.612,216.375 272.632,216.294 271.485 C 216.214 270.338,216.149 271.380,216.150 273.800 M192.950 281.000 C 192.951 283.420,193.016 284.358,193.096 283.085 C 193.176 281.812,193.175 279.832,193.094 278.685 C 193.014 277.538,192.949 278.580,192.950 281.000 M216.553 283.400 C 216.553 286.040,216.618 287.068,216.697 285.684 C 216.775 284.301,216.774 282.141,216.695 280.884 C 216.616 279.628,216.552 280.760,216.553 283.400 M193.353 290.600 C 193.353 293.240,193.418 294.268,193.497 292.884 C 193.575 291.501,193.574 289.341,193.495 288.084 C 193.416 286.828,193.352 287.960,193.353 290.600 M216.950 303.400 C 216.951 305.820,217.016 306.758,217.096 305.485 C 217.176 304.212,217.175 302.232,217.094 301.085 C 217.014 299.938,216.949 300.980,216.950 303.400 M193.750 310.600 C 193.751 313.020,193.816 313.958,193.896 312.685 C 193.976 311.412,193.975 309.432,193.894 308.285 C 193.814 307.138,193.749 308.180,193.750 310.600 M217.191 312.200 L 217.000 316.200 213.800 316.427 L 210.600 316.653 213.651 316.727 C 217.575 316.821,217.665 316.709,217.506 311.940 L 217.382 308.200 217.191 312.200 M194.359 316.921 C 194.536 317.097,195.833 317.185,197.241 317.116 L 199.800 316.991 196.918 316.795 C 195.333 316.688,194.181 316.744,194.359 316.921 M205.852 369.808 C 205.717 370.162,205.424 370.339,205.203 370.202 C 204.981 370.065,204.800 370.143,204.800 370.376 C 204.800 370.609,204.958 370.800,205.151 370.800 C 205.624 370.800,206.568 369.634,206.306 369.373 C 206.192 369.259,205.988 369.455,205.852 369.808 " stroke="none" fill="#9ce4f2" fill-rule="evenodd"></path><path id="path3" d="M4.000 2.732 L 4.000 5.463 2.001 6.399 C 0.902 6.914,0.074 7.407,0.161 7.495 C 0.249 7.582,1.238 7.189,2.360 6.620 L 4.400 5.587 4.400 2.793 C 4.400 1.257,4.310 0.000,4.200 0.000 C 4.090 0.000,4.000 1.229,4.000 2.732 M395.679 2.654 C 395.596 5.655,395.841 6.086,398.100 6.917 C 399.322 7.367,398.855 6.863,397.417 6.181 C 396.053 5.534,396.032 5.485,395.896 2.662 L 395.759 -0.200 395.679 2.654 M23.305 16.855 C 22.964 17.196,23.455 18.518,25.249 22.098 C 26.569 24.731,27.729 26.804,27.827 26.706 C 27.926 26.607,26.929 24.454,25.612 21.921 C 24.296 19.388,23.334 17.199,23.476 17.058 C 23.617 16.916,103.275 16.800,200.494 16.800 L 377.254 16.800 376.974 17.700 C 376.820 18.195,375.987 20.014,375.122 21.741 C 374.257 23.469,373.616 24.949,373.696 25.030 C 374.012 25.345,377.698 17.282,377.434 16.854 C 377.029 16.200,23.959 16.201,23.305 16.855 M0.341 23.729 C 0.583 24.021,2.246 27.126,4.036 30.629 C 5.827 34.133,7.475 37.180,7.699 37.400 C 7.923 37.620,6.437 34.515,4.397 30.500 C 2.358 26.485,0.512 23.200,0.295 23.200 C 0.061 23.200,0.079 23.414,0.341 23.729 M397.271 28.246 C 396.109 30.581,395.236 32.569,395.330 32.664 C 395.425 32.758,396.477 30.847,397.669 28.418 C 398.860 25.988,399.734 24.000,399.609 24.000 C 399.484 24.000,398.432 25.911,397.271 28.246 M369.833 32.637 C 366.626 39.259,366.400 40.253,369.479 34.200 C 371.899 29.441,372.910 27.200,372.638 27.200 C 372.543 27.200,371.281 29.646,369.833 32.637 M35.007 41.000 C 38.481 47.820,41.565 53.755,41.861 54.189 C 42.807 55.574,42.442 54.546,41.061 51.933 C 40.324 50.540,37.422 44.900,34.610 39.400 C 31.799 33.900,29.317 29.220,29.095 29.000 C 28.873 28.780,31.533 34.180,35.007 41.000 M51.381 30.105 C 51.274 30.384,51.235 35.559,51.293 41.606 L 51.400 52.600 119.200 52.800 L 187.000 53.000 187.285 63.600 C 187.441 69.430,187.643 75.100,187.733 76.200 C 187.823 77.300,187.809 72.620,187.701 65.800 C 187.585 58.397,187.344 53.198,187.104 52.900 C 186.785 52.504,172.709 52.400,119.145 52.400 L 51.587 52.400 51.694 41.300 L 51.800 30.200 198.300 30.099 L 344.800 29.999 344.800 41.198 L 344.800 52.398 277.500 52.499 L 210.200 52.600 210.186 60.400 L 210.173 68.200 210.295 60.500 L 210.417 52.800 277.815 52.800 L 345.212 52.800 345.106 41.300 L 345.000 29.800 198.288 29.699 C 80.252 29.619,51.537 29.698,51.381 30.105 M390.397 42.510 C 388.771 45.859,387.376 48.735,387.297 48.900 C 387.218 49.065,387.240 49.200,387.347 49.200 C 387.605 49.200,393.662 36.729,393.488 36.555 C 393.413 36.480,392.022 39.160,390.397 42.510 M363.808 45.049 C 362.134 48.486,360.829 51.362,360.908 51.441 C 360.987 51.521,362.377 48.844,363.997 45.493 C 365.616 42.142,367.010 39.265,367.094 39.100 C 367.178 38.935,367.158 38.800,367.049 38.800 C 366.940 38.800,365.482 41.612,363.808 45.049 M9.600 41.287 C 9.600 41.423,10.204 42.674,10.943 44.067 C 11.682 45.460,14.405 50.740,16.994 55.800 C 19.584 60.860,21.885 65.180,22.107 65.400 C 22.576 65.864,10.471 41.989,9.949 41.420 C 9.757 41.211,9.600 41.151,9.600 41.287 M384.828 53.916 C 382.440 58.701,381.505 60.800,381.762 60.800 C 381.997 60.800,387.252 49.918,387.093 49.760 C 387.023 49.690,386.004 51.560,384.828 53.916 M357.434 58.155 C 356.663 59.781,354.039 65.206,351.604 70.210 C 349.169 75.215,347.240 79.374,347.319 79.452 C 347.450 79.584,358.231 57.687,358.887 55.957 C 359.569 54.159,358.724 55.437,357.434 58.155 M49.407 69.000 C 55.274 80.518,56.800 83.354,56.800 82.735 C 56.800 82.601,55.971 80.896,54.958 78.946 C 53.945 76.996,51.042 71.350,48.507 66.400 C 45.971 61.450,43.716 57.220,43.494 57.000 C 43.272 56.780,45.933 62.180,49.407 69.000 M374.667 74.867 C 371.434 81.497,368.868 87.002,368.965 87.099 C 369.063 87.196,369.585 86.313,370.127 85.138 C 370.669 83.962,373.298 78.521,375.970 73.047 C 378.641 67.572,380.763 63.030,380.686 62.952 C 380.608 62.875,377.900 68.236,374.667 74.867 M23.200 67.678 C 23.200 67.818,23.803 69.074,24.539 70.467 C 25.276 71.860,28.178 77.500,30.990 83.000 C 33.801 88.500,36.283 93.180,36.505 93.400 C 36.951 93.841,24.602 69.476,23.739 68.211 C 23.442 67.777,23.200 67.537,23.200 67.678 M210.700 83.600 C 210.809 91.190,210.967 97.475,211.050 97.567 C 211.302 97.846,211.119 81.777,210.800 75.600 C 210.618 72.073,210.578 75.209,210.700 83.600 M188.050 88.433 C 188.078 92.705,188.234 98.810,188.398 102.000 C 188.579 105.531,188.618 102.558,188.497 94.400 C 188.387 87.030,188.231 80.925,188.149 80.833 C 188.067 80.742,188.023 84.162,188.050 88.433 M344.273 85.262 C 343.731 86.438,341.102 91.879,338.430 97.353 C 335.759 102.828,333.637 107.370,333.714 107.448 C 333.792 107.525,336.500 102.164,339.733 95.533 C 342.966 88.903,345.532 83.398,345.435 83.301 C 345.337 83.204,344.815 84.087,344.273 85.262 M62.695 94.800 C 65.561 100.410,68.390 105.963,68.980 107.140 C 69.571 108.317,70.137 109.196,70.238 109.095 C 70.340 108.993,69.816 107.760,69.074 106.355 C 68.332 104.950,65.603 99.660,63.010 94.600 C 60.417 89.540,58.113 85.220,57.890 85.000 C 57.666 84.780,59.829 89.190,62.695 94.800 M363.997 96.910 C 362.371 100.259,360.976 103.135,360.897 103.300 C 360.818 103.465,360.840 103.600,360.947 103.600 C 361.205 103.600,367.262 91.129,367.088 90.955 C 367.013 90.880,365.622 93.560,363.997 96.910 M37.600 95.687 C 37.600 95.823,38.202 97.074,38.938 98.467 C 39.674 99.860,42.395 105.140,44.985 110.200 C 47.574 115.260,49.877 119.580,50.101 119.800 C 50.567 120.257,38.474 96.402,37.946 95.820 C 37.755 95.611,37.600 95.551,37.600 95.687 M211.500 113.200 C 211.609 120.790,211.767 127.075,211.850 127.167 C 212.102 127.446,211.919 111.377,211.600 105.200 C 211.418 101.673,211.378 104.809,211.500 113.200 M358.428 108.316 C 356.040 113.101,355.105 115.200,355.362 115.200 C 355.597 115.200,360.852 104.318,360.693 104.160 C 360.623 104.090,359.604 105.960,358.428 108.316 M329.833 115.037 C 326.626 121.659,326.400 122.653,329.479 116.600 C 331.899 111.841,332.910 109.600,332.638 109.600 C 332.543 109.600,331.281 112.046,329.833 115.037 M188.850 118.433 C 188.878 122.925,189.035 129.210,189.200 132.400 C 189.382 135.927,189.422 132.791,189.300 124.400 C 189.191 116.810,189.033 110.525,188.950 110.433 C 188.868 110.342,188.823 113.942,188.850 118.433 M77.407 123.400 C 80.881 130.220,83.965 136.155,84.261 136.589 C 85.207 137.974,84.842 136.946,83.461 134.333 C 82.724 132.940,79.822 127.300,77.010 121.800 C 74.199 116.300,71.717 111.620,71.495 111.400 C 71.273 111.180,73.933 116.580,77.407 123.400 M350.403 124.907 C 348.784 128.258,347.390 131.135,347.306 131.300 C 347.222 131.465,347.242 131.600,347.351 131.600 C 347.620 131.600,353.673 119.140,353.492 118.959 C 353.413 118.879,352.023 121.556,350.403 124.907 M323.818 127.455 C 322.145 130.895,320.837 133.771,320.912 133.845 C 321.018 133.951,323.535 128.931,327.103 121.500 C 327.182 121.335,327.160 121.200,327.053 121.200 C 326.947 121.200,325.491 124.015,323.818 127.455 M52.000 123.687 C 52.000 123.823,52.604 125.074,53.343 126.467 C 54.082 127.860,56.805 133.140,59.394 138.200 C 61.984 143.260,64.285 147.580,64.507 147.800 C 64.976 148.264,52.871 124.389,52.349 123.820 C 52.157 123.611,52.000 123.551,52.000 123.687 M212.300 142.800 C 212.409 150.390,212.567 156.675,212.650 156.767 C 212.902 157.046,212.719 140.977,212.400 134.800 C 212.218 131.273,212.178 134.409,212.300 142.800 M344.828 136.316 C 342.440 141.101,341.505 143.200,341.762 143.200 C 341.997 143.200,347.252 132.318,347.093 132.160 C 347.023 132.090,346.004 133.960,344.828 136.316 M317.873 139.662 C 317.331 140.838,314.702 146.279,312.030 151.753 C 309.359 157.228,307.237 161.770,307.314 161.848 C 307.392 161.925,310.100 156.564,313.333 149.933 C 316.566 143.303,319.132 137.798,319.035 137.701 C 318.937 137.604,318.415 138.487,317.873 139.662 M91.807 151.400 C 95.281 158.220,98.365 164.155,98.661 164.589 C 99.607 165.974,99.242 164.946,97.861 162.333 C 97.124 160.940,94.222 155.300,91.410 149.800 C 88.599 144.300,86.117 139.620,85.895 139.400 C 85.673 139.180,88.333 144.580,91.807 151.400 M189.650 148.033 C 189.678 152.525,189.834 158.810,189.996 162.000 C 190.173 165.462,190.212 162.237,190.094 154.000 C 189.985 146.410,189.829 140.125,189.748 140.033 C 189.667 139.942,189.623 143.542,189.650 148.033 M334.667 157.267 C 331.434 163.897,328.866 169.399,328.961 169.494 C 329.055 169.588,329.771 168.321,330.550 166.677 C 331.330 165.034,333.961 159.594,336.396 154.590 C 338.831 149.585,340.761 145.428,340.684 145.351 C 340.607 145.274,337.900 150.636,334.667 157.267 M65.600 150.078 C 65.600 150.218,66.203 151.474,66.939 152.867 C 67.676 154.260,70.578 159.900,73.390 165.400 C 76.201 170.900,78.683 175.580,78.905 175.800 C 79.351 176.241,67.002 151.876,66.139 150.611 C 65.842 150.177,65.600 149.937,65.600 150.078 M213.103 172.800 C 213.213 180.170,213.369 186.275,213.451 186.367 C 213.699 186.644,213.520 171.395,213.202 165.200 C 213.021 161.669,212.982 164.642,213.103 172.800 M303.433 169.437 C 300.226 176.059,300.000 177.053,303.079 171.000 C 305.499 166.241,306.510 164.000,306.238 164.000 C 306.143 164.000,304.881 166.446,303.433 169.437 M105.095 177.200 C 107.961 182.810,110.790 188.363,111.380 189.540 C 111.971 190.717,112.537 191.596,112.638 191.495 C 112.740 191.393,112.216 190.160,111.474 188.755 C 110.732 187.350,108.003 182.060,105.410 177.000 C 102.817 171.940,100.513 167.620,100.290 167.400 C 100.066 167.180,102.229 171.590,105.095 177.200 M190.450 177.633 C 190.478 182.125,190.634 188.410,190.796 191.600 C 190.973 195.062,191.012 191.837,190.894 183.600 C 190.785 176.010,190.629 169.725,190.548 169.633 C 190.467 169.542,190.423 173.142,190.450 177.633 M323.997 179.310 C 322.371 182.659,320.976 185.535,320.897 185.700 C 320.818 185.865,320.840 186.000,320.947 186.000 C 321.205 186.000,327.262 173.529,327.088 173.355 C 327.013 173.280,325.622 175.960,323.997 179.310 M297.418 181.855 C 295.745 185.295,294.437 188.171,294.512 188.245 C 294.618 188.351,297.135 183.331,300.703 175.900 C 300.782 175.735,300.760 175.600,300.653 175.600 C 300.547 175.600,299.091 178.415,297.418 181.855 M80.000 178.087 C 80.000 178.223,80.602 179.474,81.338 180.867 C 82.074 182.260,84.795 187.540,87.385 192.600 C 89.974 197.660,92.277 201.980,92.501 202.200 C 92.967 202.657,80.874 178.802,80.346 178.220 C 80.155 178.011,80.000 177.951,80.000 178.087 M318.428 190.716 C 316.040 195.501,315.105 197.600,315.362 197.600 C 315.597 197.600,320.852 186.718,320.693 186.560 C 320.623 186.490,319.604 188.360,318.428 190.716 M213.903 202.400 C 214.013 209.770,214.169 215.875,214.251 215.967 C 214.499 216.244,214.320 200.995,214.002 194.800 C 213.821 191.269,213.782 194.242,213.903 202.400 M291.050 194.923 C 290.270 196.566,287.639 202.006,285.204 207.010 C 282.769 212.015,280.839 216.172,280.916 216.249 C 280.993 216.326,283.700 210.964,286.933 204.333 C 290.166 197.703,292.734 192.201,292.639 192.106 C 292.545 192.012,291.829 193.279,291.050 194.923 M119.096 204.400 C 121.741 209.570,124.568 215.123,125.378 216.741 C 126.188 218.359,126.935 219.598,127.037 219.496 C 127.140 219.394,126.616 218.160,125.874 216.755 C 125.131 215.350,122.405 210.060,119.815 205.000 C 117.226 199.940,114.922 195.620,114.696 195.400 C 114.471 195.180,116.450 199.230,119.096 204.400 M191.250 207.233 C 191.278 211.725,191.434 218.010,191.596 221.200 C 191.773 224.662,191.812 221.437,191.694 213.200 C 191.585 205.610,191.429 199.325,191.348 199.233 C 191.267 199.142,191.223 202.742,191.250 207.233 M308.267 211.667 C 305.034 218.297,302.468 223.802,302.565 223.899 C 302.663 223.996,303.185 223.113,303.727 221.938 C 304.269 220.762,306.898 215.321,309.570 209.847 C 312.241 204.372,314.363 199.830,314.286 199.752 C 314.208 199.675,311.500 205.036,308.267 211.667 M93.600 204.465 C 93.600 204.599,94.429 206.304,95.442 208.254 C 96.455 210.204,99.358 215.850,101.893 220.800 C 104.429 225.750,106.684 229.980,106.906 230.200 C 107.352 230.642,94.999 206.272,94.139 205.011 C 93.842 204.577,93.600 204.331,93.600 204.465 M277.033 223.837 C 273.826 230.459,273.600 231.453,276.679 225.400 C 279.099 220.641,280.110 218.400,279.838 218.400 C 279.743 218.400,278.481 220.846,277.033 223.837 M214.706 232.400 C 214.815 239.990,214.971 246.275,215.052 246.367 C 215.300 246.646,215.118 230.573,214.804 224.400 C 214.627 220.938,214.588 224.163,214.706 232.400 M134.207 233.800 C 137.681 240.620,140.765 246.555,141.061 246.989 C 142.007 248.374,141.642 247.346,140.261 244.733 C 139.524 243.340,136.622 237.700,133.810 232.200 C 130.999 226.700,128.517 222.020,128.295 221.800 C 128.073 221.580,130.733 226.980,134.207 233.800 M297.597 233.710 C 295.971 237.059,294.576 239.935,294.497 240.100 C 294.418 240.265,294.440 240.400,294.547 240.400 C 294.805 240.400,300.862 227.929,300.688 227.755 C 300.613 227.680,299.222 230.360,297.597 233.710 M192.050 236.833 C 192.078 241.325,192.234 247.610,192.396 250.800 C 192.573 254.262,192.612 251.037,192.494 242.800 C 192.385 235.210,192.229 228.925,192.148 228.833 C 192.067 228.742,192.023 232.342,192.050 236.833 M271.008 236.249 C 269.334 239.686,268.028 242.561,268.106 242.639 C 268.216 242.750,270.694 237.817,274.303 230.300 C 274.382 230.135,274.358 230.000,274.249 230.000 C 274.140 230.000,272.682 232.812,271.008 236.249 M108.000 232.478 C 108.000 232.618,108.603 233.874,109.339 235.267 C 110.076 236.660,112.978 242.300,115.790 247.800 C 118.601 253.300,121.083 257.980,121.305 258.200 C 121.751 258.641,109.402 234.276,108.539 233.011 C 108.242 232.577,108.000 232.337,108.000 232.478 M292.028 245.116 C 289.640 249.901,288.705 252.000,288.962 252.000 C 289.197 252.000,294.452 241.118,294.293 240.960 C 294.223 240.890,293.204 242.760,292.028 245.116 M264.634 249.355 C 263.863 250.981,261.239 256.406,258.804 261.410 C 256.369 266.415,254.440 270.574,254.519 270.652 C 254.650 270.784,265.431 248.887,266.087 247.157 C 266.769 245.359,265.924 246.637,264.634 249.355 M215.506 262.000 C 215.615 269.590,215.771 275.875,215.852 275.967 C 216.100 276.246,215.918 260.173,215.604 254.000 C 215.427 250.538,215.388 253.763,215.506 262.000 M148.607 261.800 C 154.474 273.318,156.000 276.154,156.000 275.535 C 156.000 275.401,155.171 273.696,154.158 271.746 C 153.145 269.796,150.242 264.150,147.707 259.200 C 145.171 254.250,142.916 250.020,142.694 249.800 C 142.472 249.580,145.133 254.980,148.607 261.800 M284.003 261.707 C 282.384 265.058,280.990 267.935,280.906 268.100 C 280.822 268.265,280.842 268.400,280.951 268.400 C 281.220 268.400,287.273 255.940,287.092 255.759 C 287.013 255.679,285.623 258.356,284.003 261.707 M192.847 267.233 C 192.873 271.725,193.030 277.830,193.197 280.800 C 193.379 284.066,193.419 280.906,193.298 272.800 C 193.188 265.430,193.031 259.325,192.949 259.233 C 192.867 259.142,192.821 262.742,192.847 267.233 M122.400 260.487 C 122.400 260.623,123.002 261.874,123.738 263.267 C 124.474 264.660,127.195 269.940,129.785 275.000 C 132.374 280.060,134.677 284.380,134.901 284.600 C 135.367 285.057,123.274 261.202,122.746 260.620 C 122.555 260.411,122.400 260.351,122.400 260.487 M278.428 273.116 C 276.040 277.901,275.105 280.000,275.362 280.000 C 275.597 280.000,280.852 269.118,280.693 268.960 C 280.623 268.890,279.604 270.760,278.428 273.116 M250.249 279.022 C 247.279 285.175,247.405 285.455,250.445 279.458 C 251.767 276.850,252.770 274.636,252.673 274.540 C 252.576 274.443,251.485 276.460,250.249 279.022 M161.895 287.600 C 164.761 293.210,167.590 298.763,168.180 299.940 C 168.771 301.117,169.337 301.996,169.438 301.895 C 169.540 301.793,169.016 300.560,168.274 299.155 C 167.531 297.750,164.805 292.460,162.215 287.400 C 159.626 282.340,157.321 278.020,157.095 277.800 C 156.869 277.580,159.029 281.990,161.895 287.600 M216.306 291.600 C 216.415 299.190,216.571 305.475,216.652 305.567 C 216.900 305.846,216.718 289.773,216.404 283.600 C 216.227 280.138,216.188 283.363,216.306 291.600 M268.267 294.067 C 265.034 300.697,262.466 306.199,262.561 306.294 C 262.655 306.388,263.371 305.121,264.150 303.477 C 264.930 301.834,267.561 296.394,269.996 291.390 C 272.431 286.385,274.361 282.228,274.284 282.151 C 274.207 282.074,271.500 287.436,268.267 294.067 M244.214 291.452 C 242.320 295.331,240.834 298.567,240.911 298.644 C 240.988 298.721,242.557 295.682,244.398 291.892 C 246.240 288.101,247.814 284.865,247.897 284.700 C 247.979 284.535,247.959 284.400,247.852 284.400 C 247.744 284.400,246.107 287.574,244.214 291.452 M136.000 286.865 C 136.000 286.999,136.829 288.704,137.842 290.654 C 138.855 292.604,141.758 298.250,144.293 303.200 C 146.829 308.150,149.084 312.380,149.306 312.600 C 149.752 313.042,137.399 288.672,136.539 287.411 C 136.242 286.977,136.000 286.731,136.000 286.865 M193.850 302.550 C 193.941 310.002,194.112 316.257,194.231 316.450 C 194.475 316.845,207.907 316.851,213.400 316.458 L 217.000 316.200 217.029 311.800 L 217.058 307.400 216.829 311.600 L 216.600 315.800 212.400 316.051 C 210.090 316.189,205.095 316.324,201.300 316.351 L 194.400 316.400 194.349 311.300 C 194.321 308.495,194.161 302.330,193.993 297.600 C 193.736 290.400,193.713 291.205,193.850 302.550 M237.033 306.237 C 233.826 312.859,233.600 313.853,236.679 307.800 C 239.099 303.041,240.110 300.800,239.838 300.800 C 239.743 300.800,238.481 303.246,237.033 306.237 M176.607 316.200 C 180.081 323.020,183.165 328.955,183.461 329.389 C 184.407 330.774,184.042 329.746,182.661 327.133 C 181.924 325.740,179.022 320.100,176.210 314.600 C 173.399 309.100,170.917 304.420,170.695 304.200 C 170.473 303.980,173.133 309.380,176.607 316.200 M257.597 316.110 C 255.971 319.459,254.576 322.335,254.497 322.500 C 254.418 322.665,254.440 322.800,254.547 322.800 C 254.805 322.800,260.862 310.329,260.688 310.155 C 260.613 310.080,259.222 312.760,257.597 316.110 M231.018 318.655 C 229.345 322.095,228.037 324.971,228.112 325.045 C 228.218 325.151,230.735 320.131,234.303 312.700 C 234.382 312.535,234.360 312.400,234.253 312.400 C 234.147 312.400,232.691 315.215,231.018 318.655 M150.400 314.878 C 150.400 315.018,151.003 316.274,151.739 317.667 C 152.476 319.060,155.378 324.700,158.190 330.200 C 161.001 335.700,163.483 340.380,163.705 340.600 C 164.151 341.041,151.802 316.676,150.939 315.411 C 150.642 314.977,150.400 314.737,150.400 314.878 M252.028 327.516 C 249.640 332.301,248.705 334.400,248.962 334.400 C 249.197 334.400,254.452 323.518,254.293 323.360 C 254.223 323.290,253.204 325.160,252.028 327.516 M225.073 330.862 C 224.531 332.038,221.902 337.479,219.230 342.953 C 216.559 348.428,214.437 352.970,214.514 353.048 C 214.592 353.125,217.300 347.764,220.533 341.133 C 223.766 334.503,226.332 328.998,226.235 328.901 C 226.137 328.804,225.615 329.687,225.073 330.862 M191.007 344.200 C 194.481 351.020,197.565 356.955,197.861 357.389 C 198.807 358.774,198.442 357.746,197.061 355.133 C 196.324 353.740,193.422 348.100,190.610 342.600 C 187.799 337.100,185.317 332.420,185.095 332.200 C 184.873 331.980,187.533 337.380,191.007 344.200 M241.867 348.467 C 238.634 355.097,236.068 360.602,236.165 360.699 C 236.263 360.796,236.785 359.913,237.327 358.738 C 237.869 357.562,240.498 352.121,243.170 346.647 C 245.841 341.172,247.963 336.630,247.886 336.552 C 247.808 336.475,245.100 341.836,241.867 348.467 M164.800 342.887 C 164.800 343.023,165.402 344.274,166.138 345.667 C 166.874 347.060,169.597 352.340,172.190 357.400 C 174.783 362.460,177.085 366.780,177.307 367.000 C 177.771 367.462,165.666 343.593,165.146 343.020 C 164.955 342.811,164.800 342.751,164.800 342.887 M210.633 360.637 C 207.426 367.259,207.200 368.253,210.279 362.200 C 212.699 357.441,213.710 355.200,213.438 355.200 C 213.343 355.200,212.081 357.646,210.633 360.637 M201.982 365.563 C 205.120 371.828,205.556 372.162,206.864 369.300 C 207.342 368.255,207.822 367.220,207.930 367.000 C 208.039 366.780,207.986 366.728,207.813 366.885 C 207.639 367.042,207.115 367.928,206.648 368.856 C 205.390 371.356,205.225 371.227,202.400 365.559 C 200.970 362.690,199.656 360.249,199.479 360.135 C 199.302 360.020,200.429 362.463,201.982 365.563 M228.569 375.845 C 222.900 387.491,222.296 388.800,222.595 388.800 C 222.688 388.800,223.395 387.470,224.166 385.845 C 224.937 384.219,227.561 378.794,229.996 373.790 C 232.431 368.785,234.360 364.626,234.281 364.548 C 234.202 364.469,231.632 369.553,228.569 375.845 M178.400 369.265 C 178.400 369.399,179.229 371.104,180.242 373.054 C 181.255 375.004,184.158 380.650,186.693 385.600 C 189.229 390.550,191.484 394.780,191.706 395.000 C 192.152 395.442,179.799 371.072,178.939 369.811 C 178.642 369.377,178.400 369.131,178.400 369.265 M218.882 395.821 C 217.957 397.686,217.202 399.434,217.205 399.706 C 217.208 399.978,218.022 398.510,219.015 396.443 C 220.008 394.377,220.762 392.629,220.692 392.558 C 220.621 392.488,219.807 393.956,218.882 395.821 M192.807 397.239 C 192.792 397.753,194.096 400.038,194.292 399.842 C 194.406 399.727,194.120 399.041,193.657 398.317 C 193.193 397.593,192.810 397.107,192.807 397.239 M203.824 397.813 C 203.396 398.136,203.225 398.400,203.444 398.400 C 203.662 398.400,204.011 398.234,204.220 398.031 C 204.429 397.828,205.140 397.585,205.800 397.491 L 207.000 397.320 205.800 397.273 C 205.140 397.247,204.251 397.490,203.824 397.813 M201.700 398.888 C 201.205 399.127,200.800 399.479,200.800 399.670 C 200.800 399.862,201.250 399.724,201.800 399.363 C 203.267 398.402,203.216 398.157,201.700 398.888 M209.010 398.816 C 209.140 399.027,209.507 399.200,209.824 399.200 C 210.141 399.200,210.400 399.380,210.400 399.600 C 210.400 399.820,210.580 400.000,210.800 400.000 C 211.664 400.000,211.135 399.256,209.986 398.855 C 209.267 398.604,208.869 398.588,209.010 398.816 " stroke="none" fill="#60d6eb" fill-rule="evenodd"></path><path id="path4" d="M3.676 2.467 C 3.627 4.164,3.418 5.207,3.100 5.335 C 2.708 5.493,2.711 5.544,3.113 5.568 C 3.869 5.615,4.060 4.784,3.897 2.155 L 3.751 -0.200 3.676 2.467 M396.077 2.486 C 396.007 4.914,396.086 5.214,396.900 5.608 C 397.696 5.994,397.722 5.981,397.121 5.493 C 396.644 5.106,396.399 4.177,396.298 2.371 L 396.154 -0.200 396.077 2.486 M1.100 6.229 C -0.395 7.040,-0.304 7.378,1.200 6.600 C 1.860 6.259,2.400 5.894,2.400 5.790 C 2.400 5.532,2.357 5.547,1.100 6.229 M326.546 17.100 L 376.492 17.203 376.269 18.059 C 376.109 18.671,376.168 18.792,376.475 18.485 C 378.206 16.754,379.456 16.794,326.513 16.898 L 276.600 16.997 326.546 17.100 M23.886 18.006 C 24.002 18.450,24.238 18.900,24.411 19.007 C 24.584 19.114,24.631 18.841,24.516 18.402 C 24.308 17.605,24.547 17.602,91.654 17.500 L 159.000 17.398 91.337 17.299 L 23.675 17.200 23.886 18.006 M373.680 23.420 C 372.976 24.848,372.409 26.147,372.420 26.308 C 372.430 26.468,373.072 25.367,373.846 23.859 C 374.619 22.352,375.186 21.053,375.106 20.972 C 375.025 20.892,374.383 21.993,373.680 23.420 M25.645 21.405 C 26.139 22.697,28.132 26.402,28.262 26.271 C 28.418 26.116,26.144 21.592,25.716 21.204 C 25.592 21.092,25.560 21.182,25.645 21.405 M370.565 29.900 C 369.738 31.605,368.992 33.135,368.907 33.300 C 368.822 33.465,368.838 33.600,368.942 33.600 C 369.046 33.600,369.807 32.205,370.635 30.500 C 371.462 28.795,372.208 27.265,372.293 27.100 C 372.378 26.935,372.362 26.800,372.258 26.800 C 372.154 26.800,371.393 28.195,370.565 29.900 M2.045 27.805 C 2.539 29.097,4.532 32.802,4.662 32.671 C 4.818 32.516,2.544 27.992,2.116 27.604 C 1.992 27.492,1.960 27.582,2.045 27.805 M396.961 30.300 C 396.357 31.565,395.793 32.735,395.708 32.900 C 395.623 33.065,395.640 33.200,395.747 33.200 C 395.854 33.200,396.435 32.165,397.039 30.900 C 397.643 29.635,398.207 28.465,398.292 28.300 C 398.377 28.135,398.360 28.000,398.253 28.000 C 398.146 28.000,397.565 29.035,396.961 30.300 M30.400 30.800 C 31.066 32.120,31.702 33.200,31.812 33.200 C 31.922 33.200,31.466 32.120,30.800 30.800 C 30.134 29.480,29.498 28.400,29.388 28.400 C 29.278 28.400,29.734 29.480,30.400 30.800 M50.981 29.705 C 50.430 31.140,51.010 52.990,51.600 53.033 C 51.945 53.058,51.988 53.006,51.700 52.909 C 51.315 52.780,51.200 50.071,51.200 41.170 L 51.200 29.599 198.300 29.699 L 345.400 29.800 345.609 41.200 L 345.819 52.600 345.909 41.380 C 345.976 33.083,345.875 30.035,345.520 29.680 C 344.798 28.958,51.258 28.983,50.981 29.705 M6.800 37.200 C 7.466 38.520,8.102 39.600,8.212 39.600 C 8.322 39.600,7.866 38.520,7.200 37.200 C 6.534 35.880,5.898 34.800,5.788 34.800 C 5.678 34.800,6.134 35.880,6.800 37.200 M32.845 35.405 C 33.339 36.697,35.332 40.402,35.462 40.271 C 35.618 40.116,33.344 35.592,32.916 35.204 C 32.792 35.092,32.760 35.182,32.845 35.405 M393.675 37.019 C 392.470 39.500,392.605 39.847,393.846 37.461 C 394.401 36.394,394.787 35.453,394.703 35.370 C 394.619 35.286,394.157 36.028,393.675 37.019 M366.875 37.419 C 365.670 39.900,365.805 40.247,367.046 37.861 C 367.601 36.794,367.987 35.853,367.903 35.770 C 367.819 35.686,367.357 36.428,366.875 37.419 M9.245 41.805 C 9.739 43.097,11.732 46.802,11.862 46.671 C 12.018 46.516,9.744 41.992,9.316 41.604 C 9.192 41.492,9.160 41.582,9.245 41.805 M37.600 44.800 C 38.266 46.120,38.902 47.200,39.012 47.200 C 39.122 47.200,38.666 46.120,38.000 44.800 C 37.334 43.480,36.698 42.400,36.588 42.400 C 36.478 42.400,36.934 43.480,37.600 44.800 M390.152 44.300 C 389.774 45.125,389.395 45.935,389.309 46.100 C 389.223 46.265,389.245 46.400,389.358 46.400 C 389.470 46.400,389.871 45.725,390.248 44.900 C 390.626 44.075,391.005 43.265,391.091 43.100 C 391.177 42.935,391.155 42.800,391.042 42.800 C 390.930 42.800,390.529 43.475,390.152 44.300 M363.352 44.700 C 362.974 45.525,362.595 46.335,362.509 46.500 C 362.423 46.665,362.445 46.800,362.558 46.800 C 362.670 46.800,363.071 46.125,363.448 45.300 C 363.826 44.475,364.205 43.665,364.291 43.500 C 364.377 43.335,364.355 43.200,364.242 43.200 C 364.130 43.200,363.729 43.875,363.352 44.700 M387.275 50.219 C 386.070 52.700,386.205 53.047,387.446 50.661 C 388.001 49.594,388.387 48.653,388.303 48.570 C 388.219 48.486,387.757 49.228,387.275 50.219 M13.600 50.400 C 14.049 51.280,14.506 52.000,14.616 52.000 C 14.726 52.000,14.449 51.280,14.000 50.400 C 13.551 49.520,13.094 48.800,12.984 48.800 C 12.874 48.800,13.151 49.520,13.600 50.400 M360.475 50.619 C 359.270 53.100,359.405 53.447,360.646 51.061 C 361.201 49.994,361.587 49.053,361.503 48.970 C 361.419 48.886,360.957 49.628,360.475 50.619 M40.000 49.296 C 40.000 49.713,41.740 52.793,41.891 52.642 C 41.973 52.561,41.651 51.798,41.177 50.947 C 40.251 49.287,40.000 48.935,40.000 49.296 M210.550 57.400 C 210.551 59.820,210.616 60.758,210.696 59.485 C 210.776 58.212,210.775 56.232,210.694 55.085 C 210.614 53.938,210.549 54.980,210.550 57.400 M44.400 58.000 C 45.285 59.760,46.099 61.200,46.209 61.200 C 46.319 61.200,45.685 59.760,44.800 58.000 C 43.915 56.240,43.101 54.800,42.991 54.800 C 42.881 54.800,43.515 56.240,44.400 58.000 M357.361 57.100 C 356.757 58.365,356.193 59.535,356.108 59.700 C 356.023 59.865,356.040 60.000,356.147 60.000 C 356.254 60.000,356.835 58.965,357.439 57.700 C 358.043 56.435,358.607 55.265,358.692 55.100 C 358.777 54.935,358.760 54.800,358.653 54.800 C 358.546 54.800,357.965 55.835,357.361 57.100 M16.400 55.696 C 16.400 56.113,18.140 59.193,18.291 59.042 C 18.373 58.961,18.051 58.198,17.577 57.347 C 16.651 55.687,16.400 55.335,16.400 55.696 M383.361 58.300 C 382.757 59.565,382.193 60.735,382.108 60.900 C 382.023 61.065,382.040 61.200,382.147 61.200 C 382.254 61.200,382.835 60.165,383.439 58.900 C 384.043 57.635,384.607 56.465,384.692 56.300 C 384.777 56.135,384.760 56.000,384.653 56.000 C 384.546 56.000,383.965 57.035,383.361 58.300 M186.973 66.200 C 186.973 71.480,187.030 73.585,187.099 70.877 C 187.168 68.169,187.168 63.849,187.099 61.277 C 187.029 58.705,186.972 60.920,186.973 66.200 M20.800 64.400 C 21.685 66.160,22.499 67.600,22.609 67.600 C 22.719 67.600,22.085 66.160,21.200 64.400 C 20.315 62.640,19.501 61.200,19.391 61.200 C 19.281 61.200,19.915 62.640,20.800 64.400 M380.480 64.220 C 379.776 65.648,379.209 66.947,379.220 67.108 C 379.230 67.268,379.872 66.167,380.646 64.659 C 381.419 63.152,381.986 61.853,381.906 61.772 C 381.825 61.692,381.183 62.793,380.480 64.220 M354.075 63.819 C 352.870 66.300,353.005 66.647,354.246 64.261 C 354.801 63.194,355.187 62.253,355.103 62.170 C 355.019 62.086,354.557 62.828,354.075 63.819 M47.200 63.296 C 47.200 63.713,48.940 66.793,49.091 66.642 C 49.173 66.561,48.851 65.798,48.377 64.947 C 47.451 63.287,47.200 62.935,47.200 63.296 M210.948 67.600 C 210.948 69.910,211.014 70.855,211.095 69.700 C 211.176 68.545,211.176 66.655,211.095 65.500 C 211.014 64.345,210.948 65.290,210.948 67.600 M377.352 70.700 C 376.974 71.525,376.595 72.335,376.509 72.500 C 376.423 72.665,376.445 72.800,376.558 72.800 C 376.670 72.800,377.071 72.125,377.448 71.300 C 377.826 70.475,378.205 69.665,378.291 69.500 C 378.377 69.335,378.355 69.200,378.242 69.200 C 378.130 69.200,377.729 69.875,377.352 70.700 M23.600 69.696 C 23.600 70.113,25.340 73.193,25.491 73.042 C 25.573 72.961,25.251 72.198,24.777 71.347 C 23.851 69.687,23.600 69.335,23.600 69.696 M350.552 71.100 C 350.174 71.925,349.795 72.735,349.709 72.900 C 349.623 73.065,349.645 73.200,349.758 73.200 C 349.870 73.200,350.271 72.525,350.648 71.700 C 351.026 70.875,351.405 70.065,351.491 69.900 C 351.577 69.735,351.555 69.600,351.442 69.600 C 351.330 69.600,350.929 70.275,350.552 71.100 M51.600 72.000 C 52.049 72.880,52.506 73.600,52.616 73.600 C 52.726 73.600,52.449 72.880,52.000 72.000 C 51.551 71.120,51.094 70.400,50.984 70.400 C 50.874 70.400,51.151 71.120,51.600 72.000 M211.372 82.200 C 211.372 87.260,211.429 89.275,211.499 86.677 C 211.569 84.080,211.568 79.940,211.498 77.477 C 211.428 75.015,211.371 77.140,211.372 82.200 M27.600 77.600 C 28.266 78.920,28.902 80.000,29.012 80.000 C 29.122 80.000,28.666 78.920,28.000 77.600 C 27.334 76.280,26.698 75.200,26.588 75.200 C 26.478 75.200,26.934 76.280,27.600 77.600 M347.280 77.820 C 346.576 79.248,346.009 80.547,346.020 80.708 C 346.030 80.868,346.672 79.767,347.446 78.259 C 348.219 76.752,348.786 75.453,348.706 75.372 C 348.625 75.292,347.983 76.393,347.280 77.820 M53.645 75.805 C 54.139 77.097,56.132 80.802,56.262 80.671 C 56.418 80.516,54.144 75.992,53.716 75.604 C 53.592 75.492,53.560 75.582,53.645 75.805 M373.675 78.219 C 372.470 80.700,372.605 81.047,373.846 78.661 C 374.401 77.594,374.787 76.653,374.703 76.570 C 374.619 76.486,374.157 77.228,373.675 78.219 M187.344 80.800 C 187.344 82.890,187.412 83.745,187.494 82.700 C 187.576 81.655,187.576 79.945,187.494 78.900 C 187.412 77.855,187.344 78.710,187.344 80.800 M30.045 82.205 C 30.539 83.497,32.532 87.202,32.662 87.071 C 32.818 86.916,30.544 82.392,30.116 82.004 C 29.992 81.892,29.960 81.982,30.045 82.205 M370.561 84.700 C 369.957 85.965,369.393 87.135,369.308 87.300 C 369.223 87.465,369.240 87.600,369.347 87.600 C 369.454 87.600,370.035 86.565,370.639 85.300 C 371.243 84.035,371.807 82.865,371.892 82.700 C 371.977 82.535,371.960 82.400,371.853 82.400 C 371.746 82.400,371.165 83.435,370.561 84.700 M58.400 85.200 C 59.066 86.520,59.702 87.600,59.812 87.600 C 59.922 87.600,59.466 86.520,58.800 85.200 C 58.134 83.880,57.498 82.800,57.388 82.800 C 57.278 82.800,57.734 83.880,58.400 85.200 M343.761 85.100 C 343.157 86.365,342.593 87.535,342.508 87.700 C 342.423 87.865,342.440 88.000,342.547 88.000 C 342.654 88.000,343.235 86.965,343.839 85.700 C 344.443 84.435,345.007 83.265,345.092 83.100 C 345.177 82.935,345.160 82.800,345.053 82.800 C 344.946 82.800,344.365 83.835,343.761 85.100 M187.772 96.200 C 187.772 101.260,187.829 103.275,187.899 100.677 C 187.969 98.080,187.968 93.940,187.898 91.477 C 187.828 89.015,187.771 91.140,187.772 96.200 M34.800 91.600 C 35.466 92.920,36.102 94.000,36.212 94.000 C 36.322 94.000,35.866 92.920,35.200 91.600 C 34.534 90.280,33.898 89.200,33.788 89.200 C 33.678 89.200,34.134 90.280,34.800 91.600 M366.880 92.220 C 366.176 93.648,365.609 94.947,365.620 95.108 C 365.630 95.268,366.272 94.167,367.046 92.659 C 367.819 91.152,368.386 89.853,368.306 89.772 C 368.225 89.692,367.583 90.793,366.880 92.220 M340.475 91.819 C 339.270 94.300,339.405 94.647,340.646 92.261 C 341.201 91.194,341.587 90.253,341.503 90.170 C 341.419 90.086,340.957 90.828,340.475 91.819 M61.600 91.296 C 61.600 91.713,63.340 94.793,63.491 94.642 C 63.573 94.561,63.251 93.798,62.777 92.947 C 61.851 91.287,61.600 90.935,61.600 91.296 M211.748 97.200 C 211.748 99.510,211.814 100.455,211.895 99.300 C 211.976 98.145,211.976 96.255,211.895 95.100 C 211.814 93.945,211.748 94.890,211.748 97.200 M37.245 96.205 C 37.739 97.497,39.732 101.202,39.862 101.071 C 40.018 100.916,37.744 96.392,37.316 96.004 C 37.192 95.892,37.160 95.982,37.245 96.205 M65.600 99.200 C 66.266 100.520,66.902 101.600,67.012 101.600 C 67.122 101.600,66.666 100.520,66.000 99.200 C 65.334 97.880,64.698 96.800,64.588 96.800 C 64.478 96.800,64.934 97.880,65.600 99.200 M363.752 98.700 C 363.374 99.525,362.995 100.335,362.909 100.500 C 362.823 100.665,362.845 100.800,362.958 100.800 C 363.070 100.800,363.471 100.125,363.848 99.300 C 364.226 98.475,364.605 97.665,364.691 97.500 C 364.777 97.335,364.755 97.200,364.642 97.200 C 364.530 97.200,364.129 97.875,363.752 98.700 M336.952 99.100 C 336.574 99.925,336.195 100.735,336.109 100.900 C 336.023 101.065,336.045 101.200,336.158 101.200 C 336.270 101.200,336.671 100.525,337.048 99.700 C 337.426 98.875,337.805 98.065,337.891 97.900 C 337.977 97.735,337.955 97.600,337.842 97.600 C 337.730 97.600,337.329 98.275,336.952 99.100 M212.172 111.800 C 212.172 116.860,212.229 118.875,212.299 116.277 C 212.369 113.680,212.368 109.540,212.298 107.077 C 212.228 104.615,212.171 106.740,212.172 111.800 M360.480 105.420 C 359.776 106.848,359.209 108.147,359.220 108.308 C 359.230 108.468,359.872 107.367,360.646 105.859 C 361.419 104.352,361.986 103.053,361.906 102.972 C 361.825 102.892,361.183 103.993,360.480 105.420 M42.000 105.600 C 42.666 106.920,43.302 108.000,43.412 108.000 C 43.522 108.000,43.066 106.920,42.400 105.600 C 41.734 104.280,41.098 103.200,40.988 103.200 C 40.878 103.200,41.334 104.280,42.000 105.600 M333.680 105.820 C 332.976 107.248,332.409 108.547,332.420 108.708 C 332.430 108.868,333.072 107.767,333.846 106.259 C 334.619 104.752,335.186 103.453,335.106 103.372 C 335.025 103.292,334.383 104.393,333.680 105.820 M68.045 103.805 C 68.539 105.097,70.532 108.802,70.662 108.671 C 70.818 108.516,68.544 103.992,68.116 103.604 C 67.992 103.492,67.960 103.582,68.045 103.805 M188.144 110.400 C 188.144 112.490,188.212 113.345,188.294 112.300 C 188.376 111.255,188.376 109.545,188.294 108.500 C 188.212 107.455,188.144 108.310,188.144 110.400 M330.961 111.500 C 330.357 112.765,329.793 113.935,329.708 114.100 C 329.623 114.265,329.640 114.400,329.747 114.400 C 329.854 114.400,330.435 113.365,331.039 112.100 C 331.643 110.835,332.207 109.665,332.292 109.500 C 332.377 109.335,332.360 109.200,332.253 109.200 C 332.146 109.200,331.565 110.235,330.961 111.500 M44.445 110.205 C 44.939 111.497,46.932 115.202,47.062 115.071 C 47.218 114.916,44.944 110.392,44.516 110.004 C 44.392 109.892,44.360 109.982,44.445 110.205 M356.961 112.700 C 356.357 113.965,355.793 115.135,355.708 115.300 C 355.623 115.465,355.640 115.600,355.747 115.600 C 355.854 115.600,356.435 114.565,357.039 113.300 C 357.643 112.035,358.207 110.865,358.292 110.700 C 358.377 110.535,358.360 110.400,358.253 110.400 C 358.146 110.400,357.565 111.435,356.961 112.700 M72.800 113.200 C 73.466 114.520,74.102 115.600,74.212 115.600 C 74.322 115.600,73.866 114.520,73.200 113.200 C 72.534 111.880,71.898 110.800,71.788 110.800 C 71.678 110.800,72.134 111.880,72.800 113.200 M327.280 119.020 C 326.576 120.448,326.009 121.747,326.020 121.908 C 326.030 122.068,326.672 120.967,327.446 119.459 C 328.219 117.952,328.786 116.653,328.706 116.572 C 328.625 116.492,327.983 117.593,327.280 119.020 M188.572 125.800 C 188.572 130.860,188.629 132.875,188.699 130.277 C 188.769 127.680,188.768 123.540,188.698 121.077 C 188.628 118.615,188.571 120.740,188.572 125.800 M49.200 119.600 C 49.866 120.920,50.502 122.000,50.612 122.000 C 50.722 122.000,50.266 120.920,49.600 119.600 C 48.934 118.280,48.298 117.200,48.188 117.200 C 48.078 117.200,48.534 118.280,49.200 119.600 M75.245 117.805 C 75.739 119.097,77.732 122.802,77.862 122.671 C 78.018 122.516,75.744 117.992,75.316 117.604 C 75.192 117.492,75.160 117.582,75.245 117.805 M353.675 119.419 C 352.470 121.900,352.605 122.247,353.846 119.861 C 354.401 118.794,354.787 117.853,354.703 117.770 C 354.619 117.686,354.157 118.428,353.675 119.419 M212.544 127.200 C 212.544 129.290,212.612 130.145,212.694 129.100 C 212.776 128.055,212.776 126.345,212.694 125.300 C 212.612 124.255,212.544 125.110,212.544 127.200 M350.952 125.100 C 350.574 125.925,350.195 126.735,350.109 126.900 C 350.023 127.065,350.045 127.200,350.158 127.200 C 350.270 127.200,350.671 126.525,351.048 125.700 C 351.426 124.875,351.805 124.065,351.891 123.900 C 351.977 123.735,351.955 123.600,351.842 123.600 C 351.730 123.600,351.329 124.275,350.952 125.100 M51.645 124.205 C 52.139 125.497,54.132 129.202,54.262 129.071 C 54.418 128.916,52.144 124.392,51.716 124.004 C 51.592 123.892,51.560 123.982,51.645 124.205 M324.152 125.500 C 323.774 126.325,323.395 127.135,323.309 127.300 C 323.223 127.465,323.245 127.600,323.358 127.600 C 323.470 127.600,323.871 126.925,324.248 126.100 C 324.626 125.275,325.005 124.465,325.091 124.300 C 325.177 124.135,325.155 124.000,325.042 124.000 C 324.930 124.000,324.529 124.675,324.152 125.500 M80.000 127.200 C 80.666 128.520,81.302 129.600,81.412 129.600 C 81.522 129.600,81.066 128.520,80.400 127.200 C 79.734 125.880,79.098 124.800,78.988 124.800 C 78.878 124.800,79.334 125.880,80.000 127.200 M320.880 132.220 C 320.176 133.648,319.609 134.947,319.620 135.108 C 319.630 135.268,320.272 134.167,321.046 132.659 C 321.819 131.152,322.386 129.853,322.306 129.772 C 322.225 129.692,321.583 130.793,320.880 132.220 M347.275 132.619 C 346.070 135.100,346.205 135.447,347.446 133.061 C 348.001 131.994,348.387 131.053,348.303 130.970 C 348.219 130.886,347.757 131.628,347.275 132.619 M56.000 132.800 C 56.449 133.680,56.906 134.400,57.016 134.400 C 57.126 134.400,56.849 133.680,56.400 132.800 C 55.951 131.920,55.494 131.200,55.384 131.200 C 55.274 131.200,55.551 131.920,56.000 132.800 M82.400 131.696 C 82.400 132.113,84.140 135.193,84.291 135.042 C 84.373 134.961,84.051 134.198,83.577 133.347 C 82.651 131.687,82.400 131.335,82.400 131.696 M212.972 141.400 C 212.972 146.460,213.029 148.475,213.099 145.877 C 213.169 143.280,213.168 139.140,213.098 136.677 C 213.028 134.215,212.971 136.340,212.972 141.400 M188.948 140.400 C 188.948 142.710,189.014 143.655,189.095 142.500 C 189.176 141.345,189.176 139.455,189.095 138.300 C 189.014 137.145,188.948 138.090,188.948 140.400 M343.765 139.900 C 342.938 141.605,342.192 143.135,342.107 143.300 C 342.022 143.465,342.038 143.600,342.142 143.600 C 342.246 143.600,343.007 142.205,343.835 140.500 C 344.662 138.795,345.408 137.265,345.493 137.100 C 345.578 136.935,345.562 136.800,345.458 136.800 C 345.354 136.800,344.593 138.195,343.765 139.900 M317.361 139.500 C 316.757 140.765,316.193 141.935,316.108 142.100 C 316.023 142.265,316.040 142.400,316.147 142.400 C 316.254 142.400,316.835 141.365,317.439 140.100 C 318.043 138.835,318.607 137.665,318.692 137.500 C 318.777 137.335,318.760 137.200,318.653 137.200 C 318.546 137.200,317.965 138.235,317.361 139.500 M58.800 138.096 C 58.800 138.513,60.540 141.593,60.691 141.442 C 60.773 141.361,60.451 140.598,59.977 139.747 C 59.051 138.087,58.800 137.735,58.800 138.096 M87.200 141.200 C 87.866 142.520,88.502 143.600,88.612 143.600 C 88.722 143.600,88.266 142.520,87.600 141.200 C 86.934 139.880,86.298 138.800,86.188 138.800 C 86.078 138.800,86.534 139.880,87.200 141.200 M63.200 146.800 C 64.085 148.560,64.899 150.000,65.009 150.000 C 65.119 150.000,64.485 148.560,63.600 146.800 C 62.715 145.040,61.901 143.600,61.791 143.600 C 61.681 143.600,62.315 145.040,63.200 146.800 M340.480 146.620 C 339.776 148.048,339.209 149.347,339.220 149.508 C 339.230 149.668,339.872 148.567,340.646 147.059 C 341.419 145.552,341.986 144.253,341.906 144.172 C 341.825 144.092,341.183 145.193,340.480 146.620 M314.075 146.219 C 312.870 148.700,313.005 149.047,314.246 146.661 C 314.801 145.594,315.187 144.653,315.103 144.570 C 315.019 144.486,314.557 145.228,314.075 146.219 M89.645 145.805 C 90.139 147.097,92.132 150.802,92.262 150.671 C 92.418 150.516,90.144 145.992,89.716 145.604 C 89.592 145.492,89.560 145.582,89.645 145.805 M189.372 155.400 C 189.372 160.460,189.429 162.475,189.499 159.877 C 189.569 157.280,189.568 153.140,189.498 150.677 C 189.428 148.215,189.371 150.340,189.372 155.400 M337.352 153.100 C 336.974 153.925,336.595 154.735,336.509 154.900 C 336.423 155.065,336.445 155.200,336.558 155.200 C 336.670 155.200,337.071 154.525,337.448 153.700 C 337.826 152.875,338.205 152.065,338.291 151.900 C 338.377 151.735,338.355 151.600,338.242 151.600 C 338.130 151.600,337.729 152.275,337.352 153.100 M66.000 152.096 C 66.000 152.513,67.740 155.593,67.891 155.442 C 67.973 155.361,67.651 154.598,67.177 153.747 C 66.251 152.087,66.000 151.735,66.000 152.096 M310.552 153.500 C 310.174 154.325,309.795 155.135,309.709 155.300 C 309.623 155.465,309.645 155.600,309.758 155.600 C 309.870 155.600,310.271 154.925,310.648 154.100 C 311.026 153.275,311.405 152.465,311.491 152.300 C 311.577 152.135,311.555 152.000,311.442 152.000 C 311.330 152.000,310.929 152.675,310.552 153.500 M94.000 154.400 C 94.449 155.280,94.906 156.000,95.016 156.000 C 95.126 156.000,94.849 155.280,94.400 154.400 C 93.951 153.520,93.494 152.800,93.384 152.800 C 93.274 152.800,93.551 153.520,94.000 154.400 M213.344 156.800 C 213.344 158.890,213.412 159.745,213.494 158.700 C 213.576 157.655,213.576 155.945,213.494 154.900 C 213.412 153.855,213.344 154.710,213.344 156.800 M70.000 160.000 C 70.666 161.320,71.302 162.400,71.412 162.400 C 71.522 162.400,71.066 161.320,70.400 160.000 C 69.734 158.680,69.098 157.600,68.988 157.600 C 68.878 157.600,69.334 158.680,70.000 160.000 M307.280 160.220 C 306.576 161.648,306.009 162.947,306.020 163.108 C 306.030 163.268,306.672 162.167,307.446 160.659 C 308.219 159.152,308.786 157.853,308.706 157.772 C 308.625 157.692,307.983 158.793,307.280 160.220 M333.675 160.619 C 332.470 163.100,332.605 163.447,333.846 161.061 C 334.401 159.994,334.787 159.053,334.703 158.970 C 334.619 158.886,334.157 159.628,333.675 160.619 M96.800 159.696 C 96.800 160.113,98.540 163.193,98.691 163.042 C 98.773 162.961,98.451 162.198,97.977 161.347 C 97.051 159.687,96.800 159.335,96.800 159.696 M213.772 171.000 C 213.772 176.060,213.829 178.075,213.899 175.477 C 213.969 172.880,213.968 168.740,213.898 166.277 C 213.828 163.815,213.771 165.940,213.772 171.000 M304.561 165.900 C 303.957 167.165,303.393 168.335,303.308 168.500 C 303.223 168.665,303.240 168.800,303.347 168.800 C 303.454 168.800,304.035 167.765,304.639 166.500 C 305.243 165.235,305.807 164.065,305.892 163.900 C 305.977 163.735,305.960 163.600,305.853 163.600 C 305.746 163.600,305.165 164.635,304.561 165.900 M72.445 164.605 C 72.939 165.897,74.932 169.602,75.062 169.471 C 75.218 169.316,72.944 164.792,72.516 164.404 C 72.392 164.292,72.360 164.382,72.445 164.605 M330.561 167.100 C 329.957 168.365,329.393 169.535,329.308 169.700 C 329.223 169.865,329.240 170.000,329.347 170.000 C 329.454 170.000,330.035 168.965,330.639 167.700 C 331.243 166.435,331.807 165.265,331.892 165.100 C 331.977 164.935,331.960 164.800,331.853 164.800 C 331.746 164.800,331.165 165.835,330.561 167.100 M100.800 167.600 C 101.466 168.920,102.102 170.000,102.212 170.000 C 102.322 170.000,101.866 168.920,101.200 167.600 C 100.534 166.280,99.898 165.200,99.788 165.200 C 99.678 165.200,100.134 166.280,100.800 167.600 M189.748 170.000 C 189.748 172.310,189.814 173.255,189.895 172.100 C 189.976 170.945,189.976 169.055,189.895 167.900 C 189.814 166.745,189.748 167.690,189.748 170.000 M77.200 174.000 C 77.866 175.320,78.502 176.400,78.612 176.400 C 78.722 176.400,78.266 175.320,77.600 174.000 C 76.934 172.680,76.298 171.600,76.188 171.600 C 76.078 171.600,76.534 172.680,77.200 174.000 M327.275 173.819 C 326.070 176.300,326.205 176.647,327.446 174.261 C 328.001 173.194,328.387 172.253,328.303 172.170 C 328.219 172.086,327.757 172.828,327.275 173.819 M300.475 174.219 C 299.270 176.700,299.405 177.047,300.646 174.661 C 301.201 173.594,301.587 172.653,301.503 172.570 C 301.419 172.486,300.957 173.228,300.475 174.219 M104.000 173.696 C 104.000 174.113,105.740 177.193,105.891 177.042 C 105.973 176.961,105.651 176.198,105.177 175.347 C 104.251 173.687,104.000 173.335,104.000 173.696 M190.172 185.000 C 190.172 190.060,190.229 192.075,190.299 189.477 C 190.369 186.880,190.368 182.740,190.298 180.277 C 190.228 177.815,190.171 179.940,190.172 185.000 M79.645 178.605 C 80.139 179.897,82.132 183.602,82.262 183.471 C 82.418 183.316,80.144 178.792,79.716 178.404 C 79.592 178.292,79.560 178.382,79.645 178.605 M297.752 179.900 C 297.374 180.725,296.995 181.535,296.909 181.700 C 296.823 181.865,296.845 182.000,296.958 182.000 C 297.070 182.000,297.471 181.325,297.848 180.500 C 298.226 179.675,298.605 178.865,298.691 178.700 C 298.777 178.535,298.755 178.400,298.642 178.400 C 298.530 178.400,298.129 179.075,297.752 179.900 M108.000 181.600 C 108.666 182.920,109.302 184.000,109.412 184.000 C 109.522 184.000,109.066 182.920,108.400 181.600 C 107.734 180.280,107.098 179.200,106.988 179.200 C 106.878 179.200,107.334 180.280,108.000 181.600 M323.752 181.100 C 323.374 181.925,322.995 182.735,322.909 182.900 C 322.823 183.065,322.845 183.200,322.958 183.200 C 323.070 183.200,323.471 182.525,323.848 181.700 C 324.226 180.875,324.605 180.065,324.691 179.900 C 324.777 179.735,324.755 179.600,324.642 179.600 C 324.530 179.600,324.129 180.275,323.752 181.100 M214.144 186.400 C 214.144 188.490,214.212 189.345,214.294 188.300 C 214.376 187.255,214.376 185.545,214.294 184.500 C 214.212 183.455,214.144 184.310,214.144 186.400 M320.875 187.019 C 319.670 189.500,319.805 189.847,321.046 187.461 C 321.601 186.394,321.987 185.453,321.903 185.370 C 321.819 185.286,321.357 186.028,320.875 187.019 M84.400 188.000 C 85.066 189.320,85.702 190.400,85.812 190.400 C 85.922 190.400,85.466 189.320,84.800 188.000 C 84.134 186.680,83.498 185.600,83.388 185.600 C 83.278 185.600,83.734 186.680,84.400 188.000 M294.075 187.419 C 292.870 189.900,293.005 190.247,294.246 187.861 C 294.801 186.794,295.187 185.853,295.103 185.770 C 295.019 185.686,294.557 186.428,294.075 187.419 M110.445 186.205 C 110.939 187.497,112.932 191.202,113.062 191.071 C 113.218 190.916,110.944 186.392,110.516 186.004 C 110.392 185.892,110.360 185.982,110.445 186.205 M214.573 201.000 C 214.573 206.280,214.630 208.385,214.699 205.677 C 214.768 202.969,214.768 198.649,214.699 196.077 C 214.629 193.505,214.572 195.720,214.573 201.000 M290.961 193.900 C 290.357 195.165,289.793 196.335,289.708 196.500 C 289.623 196.665,289.640 196.800,289.747 196.800 C 289.854 196.800,290.435 195.765,291.039 194.500 C 291.643 193.235,292.207 192.065,292.292 191.900 C 292.377 191.735,292.360 191.600,292.253 191.600 C 292.146 191.600,291.565 192.635,290.961 193.900 M86.845 192.605 C 87.339 193.897,89.332 197.602,89.462 197.471 C 89.618 197.316,87.344 192.792,86.916 192.404 C 86.792 192.292,86.760 192.382,86.845 192.605 M316.961 195.100 C 316.357 196.365,315.793 197.535,315.708 197.700 C 315.623 197.865,315.640 198.000,315.747 198.000 C 315.854 198.000,316.435 196.965,317.039 195.700 C 317.643 194.435,318.207 193.265,318.292 193.100 C 318.377 192.935,318.360 192.800,318.253 192.800 C 318.146 192.800,317.565 193.835,316.961 195.100 M115.200 195.600 C 115.866 196.920,116.502 198.000,116.612 198.000 C 116.722 198.000,116.266 196.920,115.600 195.600 C 114.934 194.280,114.298 193.200,114.188 193.200 C 114.078 193.200,114.534 194.280,115.200 195.600 M190.544 200.000 C 190.544 202.090,190.612 202.945,190.694 201.900 C 190.776 200.855,190.776 199.145,190.694 198.100 C 190.612 197.055,190.544 197.910,190.544 200.000 M314.080 201.020 C 313.376 202.448,312.809 203.747,312.820 203.908 C 312.830 204.068,313.472 202.967,314.246 201.459 C 315.019 199.952,315.586 198.653,315.506 198.572 C 315.425 198.492,314.783 199.593,314.080 201.020 M287.675 200.619 C 286.470 203.100,286.605 203.447,287.846 201.061 C 288.401 199.994,288.787 199.053,288.703 198.970 C 288.619 198.886,288.157 199.628,287.675 200.619 M91.600 202.000 C 92.266 203.320,92.902 204.400,93.012 204.400 C 93.122 204.400,92.666 203.320,92.000 202.000 C 91.334 200.680,90.698 199.600,90.588 199.600 C 90.478 199.600,90.934 200.680,91.600 202.000 M117.645 200.205 C 118.139 201.497,120.132 205.202,120.262 205.071 C 120.418 204.916,118.144 200.392,117.716 200.004 C 117.592 199.892,117.560 199.982,117.645 200.205 M190.972 214.600 C 190.972 219.660,191.029 221.675,191.099 219.077 C 191.169 216.480,191.168 212.340,191.098 209.877 C 191.028 207.415,190.971 209.540,190.972 214.600 M310.952 207.500 C 310.574 208.325,310.195 209.135,310.109 209.300 C 310.023 209.465,310.045 209.600,310.158 209.600 C 310.270 209.600,310.671 208.925,311.048 208.100 C 311.426 207.275,311.805 206.465,311.891 206.300 C 311.977 206.135,311.955 206.000,311.842 206.000 C 311.730 206.000,311.329 206.675,310.952 207.500 M94.045 206.605 C 94.539 207.897,96.532 211.602,96.662 211.471 C 96.818 211.316,94.544 206.792,94.116 206.404 C 93.992 206.292,93.960 206.382,94.045 206.605 M284.152 207.900 C 283.774 208.725,283.395 209.535,283.309 209.700 C 283.223 209.865,283.245 210.000,283.358 210.000 C 283.470 210.000,283.871 209.325,284.248 208.500 C 284.626 207.675,285.005 206.865,285.091 206.700 C 285.177 206.535,285.155 206.400,285.042 206.400 C 284.930 206.400,284.529 207.075,284.152 207.900 M122.400 209.600 C 123.066 210.920,123.702 212.000,123.812 212.000 C 123.922 212.000,123.466 210.920,122.800 209.600 C 122.134 208.280,121.498 207.200,121.388 207.200 C 121.278 207.200,121.734 208.280,122.400 209.600 M280.880 214.620 C 280.176 216.048,279.609 217.347,279.620 217.508 C 279.630 217.668,280.272 216.567,281.046 215.059 C 281.819 213.552,282.386 212.253,282.306 212.172 C 282.225 212.092,281.583 213.193,280.880 214.620 M214.944 216.000 C 214.944 218.090,215.012 218.945,215.094 217.900 C 215.176 216.855,215.176 215.145,215.094 214.100 C 215.012 213.055,214.944 213.910,214.944 216.000 M307.275 215.019 C 306.070 217.500,306.205 217.847,307.446 215.461 C 308.001 214.394,308.387 213.453,308.303 213.370 C 308.219 213.286,307.757 214.028,307.275 215.019 M98.400 215.200 C 98.849 216.080,99.306 216.800,99.416 216.800 C 99.526 216.800,99.249 216.080,98.800 215.200 C 98.351 214.320,97.894 213.600,97.784 213.600 C 97.674 213.600,97.951 214.320,98.400 215.200 M124.845 214.205 C 125.339 215.497,127.332 219.202,127.462 219.071 C 127.618 218.916,125.344 214.392,124.916 214.004 C 124.792 213.892,124.760 213.982,124.845 214.205 M277.765 221.100 C 276.938 222.805,276.192 224.335,276.107 224.500 C 276.022 224.665,276.038 224.800,276.142 224.800 C 276.246 224.800,277.007 223.405,277.835 221.700 C 278.662 219.995,279.408 218.465,279.493 218.300 C 279.578 218.135,279.562 218.000,279.458 218.000 C 279.354 218.000,278.593 219.395,277.765 221.100 M304.161 221.500 C 303.557 222.765,302.993 223.935,302.908 224.100 C 302.823 224.265,302.840 224.400,302.947 224.400 C 303.054 224.400,303.635 223.365,304.239 222.100 C 304.843 220.835,305.407 219.665,305.492 219.500 C 305.577 219.335,305.560 219.200,305.453 219.200 C 305.346 219.200,304.765 220.235,304.161 221.500 M101.200 220.496 C 101.200 220.913,102.940 223.993,103.091 223.842 C 103.173 223.761,102.851 222.998,102.377 222.147 C 101.451 220.487,101.200 220.135,101.200 220.496 M129.600 223.600 C 130.266 224.920,130.902 226.000,131.012 226.000 C 131.122 226.000,130.666 224.920,130.000 223.600 C 129.334 222.280,128.698 221.200,128.588 221.200 C 128.478 221.200,128.934 222.280,129.600 223.600 M215.373 230.600 C 215.373 235.880,215.430 237.985,215.499 235.277 C 215.568 232.569,215.568 228.249,215.499 225.677 C 215.429 223.105,215.372 225.320,215.373 230.600 M105.200 228.400 C 105.866 229.720,106.502 230.800,106.612 230.800 C 106.722 230.800,106.266 229.720,105.600 228.400 C 104.934 227.080,104.298 226.000,104.188 226.000 C 104.078 226.000,104.534 227.080,105.200 228.400 M191.344 229.600 C 191.344 231.690,191.412 232.545,191.494 231.500 C 191.576 230.455,191.576 228.745,191.494 227.700 C 191.412 226.655,191.344 227.510,191.344 229.600 M300.480 229.020 C 299.776 230.448,299.209 231.747,299.220 231.908 C 299.230 232.068,299.872 230.967,300.646 229.459 C 301.419 227.952,301.986 226.653,301.906 226.572 C 301.825 226.492,301.183 227.593,300.480 229.020 M274.075 228.619 C 272.870 231.100,273.005 231.447,274.246 229.061 C 274.801 227.994,275.187 227.053,275.103 226.970 C 275.019 226.886,274.557 227.628,274.075 228.619 M132.045 228.205 C 132.539 229.497,134.532 233.202,134.662 233.071 C 134.818 232.916,132.544 228.392,132.116 228.004 C 131.992 227.892,131.960 227.982,132.045 228.205 M270.961 235.100 C 270.357 236.365,269.793 237.535,269.708 237.700 C 269.623 237.865,269.640 238.000,269.747 238.000 C 269.854 238.000,270.435 236.965,271.039 235.700 C 271.643 234.435,272.207 233.265,272.292 233.100 C 272.377 232.935,272.360 232.800,272.253 232.800 C 272.146 232.800,271.565 233.835,270.961 235.100 M297.352 235.500 C 296.974 236.325,296.595 237.135,296.509 237.300 C 296.423 237.465,296.445 237.600,296.558 237.600 C 296.670 237.600,297.071 236.925,297.448 236.100 C 297.826 235.275,298.205 234.465,298.291 234.300 C 298.377 234.135,298.355 234.000,298.242 234.000 C 298.130 234.000,297.729 234.675,297.352 235.500 M108.400 234.496 C 108.400 234.913,110.140 237.993,110.291 237.842 C 110.373 237.761,110.051 236.998,109.577 236.147 C 108.651 234.487,108.400 234.135,108.400 234.496 M136.800 237.600 C 137.466 238.920,138.102 240.000,138.212 240.000 C 138.322 240.000,137.866 238.920,137.200 237.600 C 136.534 236.280,135.898 235.200,135.788 235.200 C 135.678 235.200,136.134 236.280,136.800 237.600 M191.773 244.600 C 191.773 249.880,191.830 251.985,191.899 249.277 C 191.968 246.569,191.968 242.249,191.899 239.677 C 191.829 237.105,191.772 239.320,191.773 244.600 M294.080 242.220 C 293.376 243.648,292.809 244.947,292.820 245.108 C 292.830 245.268,293.472 244.167,294.246 242.659 C 295.019 241.152,295.586 239.853,295.506 239.772 C 295.425 239.692,294.783 240.793,294.080 242.220 M112.400 242.400 C 113.066 243.720,113.702 244.800,113.812 244.800 C 113.922 244.800,113.466 243.720,112.800 242.400 C 112.134 241.080,111.498 240.000,111.388 240.000 C 111.278 240.000,111.734 241.080,112.400 242.400 M267.675 241.819 C 266.470 244.300,266.605 244.647,267.846 242.261 C 268.401 241.194,268.787 240.253,268.703 240.170 C 268.619 240.086,268.157 240.828,267.675 241.819 M139.200 242.096 C 139.200 242.513,140.940 245.593,141.091 245.442 C 141.173 245.361,140.851 244.598,140.377 243.747 C 139.451 242.087,139.200 241.735,139.200 242.096 M215.744 245.600 C 215.744 247.690,215.812 248.545,215.894 247.500 C 215.976 246.455,215.976 244.745,215.894 243.700 C 215.812 242.655,215.744 243.510,215.744 245.600 M264.561 248.300 C 263.957 249.565,263.393 250.735,263.308 250.900 C 263.223 251.065,263.240 251.200,263.347 251.200 C 263.454 251.200,264.035 250.165,264.639 248.900 C 265.243 247.635,265.807 246.465,265.892 246.300 C 265.977 246.135,265.960 246.000,265.853 246.000 C 265.746 246.000,265.165 247.035,264.561 248.300 M114.845 247.005 C 115.339 248.297,117.332 252.002,117.462 251.871 C 117.618 251.716,115.344 247.192,114.916 246.804 C 114.792 246.692,114.760 246.782,114.845 247.005 M290.561 249.500 C 289.957 250.765,289.393 251.935,289.308 252.100 C 289.223 252.265,289.240 252.400,289.347 252.400 C 289.454 252.400,290.035 251.365,290.639 250.100 C 291.243 248.835,291.807 247.665,291.892 247.500 C 291.977 247.335,291.960 247.200,291.853 247.200 C 291.746 247.200,291.165 248.235,290.561 249.500 M143.600 250.800 C 144.485 252.560,145.299 254.000,145.409 254.000 C 145.519 254.000,144.885 252.560,144.000 250.800 C 143.115 249.040,142.301 247.600,142.191 247.600 C 142.081 247.600,142.715 249.040,143.600 250.800 M216.172 260.600 C 216.172 265.660,216.229 267.675,216.299 265.077 C 216.369 262.480,216.368 258.340,216.298 255.877 C 216.228 253.415,216.171 255.540,216.172 260.600 M261.275 255.019 C 260.070 257.500,260.205 257.847,261.446 255.461 C 262.001 254.394,262.387 253.453,262.303 253.370 C 262.219 253.286,261.757 254.028,261.275 255.019 M119.600 256.400 C 120.266 257.720,120.902 258.800,121.012 258.800 C 121.122 258.800,120.666 257.720,120.000 256.400 C 119.334 255.080,118.698 254.000,118.588 254.000 C 118.478 254.000,118.934 255.080,119.600 256.400 M287.275 256.219 C 286.070 258.700,286.205 259.047,287.446 256.661 C 288.001 255.594,288.387 254.653,288.303 254.570 C 288.219 254.486,287.757 255.228,287.275 256.219 M192.144 259.200 C 192.144 261.290,192.212 262.145,192.294 261.100 C 192.376 260.055,192.376 258.345,192.294 257.300 C 192.212 256.255,192.144 257.110,192.144 259.200 M146.400 256.096 C 146.400 256.513,148.140 259.593,148.291 259.442 C 148.373 259.361,148.051 258.598,147.577 257.747 C 146.651 256.087,146.400 255.735,146.400 256.096 M284.552 261.900 C 284.174 262.725,283.795 263.535,283.709 263.700 C 283.623 263.865,283.645 264.000,283.758 264.000 C 283.870 264.000,284.271 263.325,284.648 262.500 C 285.026 261.675,285.405 260.865,285.491 260.700 C 285.577 260.535,285.555 260.400,285.442 260.400 C 285.330 260.400,284.929 261.075,284.552 261.900 M122.045 261.005 C 122.539 262.297,124.532 266.002,124.662 265.871 C 124.818 265.716,122.544 261.192,122.116 260.804 C 121.992 260.692,121.960 260.782,122.045 261.005 M257.752 262.300 C 257.374 263.125,256.995 263.935,256.909 264.100 C 256.823 264.265,256.845 264.400,256.958 264.400 C 257.070 264.400,257.471 263.725,257.848 262.900 C 258.226 262.075,258.605 261.265,258.691 261.100 C 258.777 260.935,258.755 260.800,258.642 260.800 C 258.530 260.800,258.129 261.475,257.752 262.300 M150.800 264.800 C 151.249 265.680,151.706 266.400,151.816 266.400 C 151.926 266.400,151.649 265.680,151.200 264.800 C 150.751 263.920,150.294 263.200,150.184 263.200 C 150.074 263.200,150.351 263.920,150.800 264.800 M192.572 274.600 C 192.572 279.660,192.629 281.675,192.699 279.077 C 192.769 276.480,192.768 272.340,192.698 269.877 C 192.628 267.415,192.571 269.540,192.572 274.600 M254.480 269.020 C 253.776 270.448,253.209 271.747,253.220 271.908 C 253.230 272.068,253.872 270.967,254.646 269.459 C 255.419 267.952,255.986 266.653,255.906 266.572 C 255.825 266.492,255.183 267.593,254.480 269.020 M280.875 269.419 C 279.670 271.900,279.805 272.247,281.046 269.861 C 281.601 268.794,281.987 267.853,281.903 267.770 C 281.819 267.686,281.357 268.428,280.875 269.419 M126.800 270.400 C 127.466 271.720,128.102 272.800,128.212 272.800 C 128.322 272.800,127.866 271.720,127.200 270.400 C 126.534 269.080,125.898 268.000,125.788 268.000 C 125.678 268.000,126.134 269.080,126.800 270.400 M152.845 268.605 C 153.339 269.897,155.332 273.602,155.462 273.471 C 155.618 273.316,153.344 268.792,152.916 268.404 C 152.792 268.292,152.760 268.382,152.845 268.605 M216.544 275.200 C 216.544 277.290,216.612 278.145,216.694 277.100 C 216.776 276.055,216.776 274.345,216.694 273.300 C 216.612 272.255,216.544 273.110,216.544 275.200 M277.365 276.700 C 276.538 278.405,275.792 279.935,275.707 280.100 C 275.622 280.265,275.638 280.400,275.742 280.400 C 275.846 280.400,276.607 279.005,277.435 277.300 C 278.262 275.595,279.008 274.065,279.093 273.900 C 279.178 273.735,279.162 273.600,279.058 273.600 C 278.954 273.600,278.193 274.995,277.365 276.700 M250.961 276.300 C 250.357 277.565,249.793 278.735,249.708 278.900 C 249.623 279.065,249.640 279.200,249.747 279.200 C 249.854 279.200,250.435 278.165,251.039 276.900 C 251.643 275.635,252.207 274.465,252.292 274.300 C 252.377 274.135,252.360 274.000,252.253 274.000 C 252.146 274.000,251.565 275.035,250.961 276.300 M129.245 275.005 C 129.739 276.297,131.732 280.002,131.862 279.871 C 132.018 279.716,129.744 275.192,129.316 274.804 C 129.192 274.692,129.160 274.782,129.245 275.005 M157.600 278.000 C 158.266 279.320,158.902 280.400,159.012 280.400 C 159.122 280.400,158.666 279.320,158.000 278.000 C 157.334 276.680,156.698 275.600,156.588 275.600 C 156.478 275.600,156.934 276.680,157.600 278.000 M274.080 283.420 C 273.376 284.848,272.809 286.147,272.820 286.308 C 272.830 286.468,273.472 285.367,274.246 283.859 C 275.019 282.352,275.586 281.053,275.506 280.972 C 275.425 280.892,274.783 281.993,274.080 283.420 M216.972 290.200 C 216.972 295.260,217.029 297.275,217.099 294.677 C 217.169 292.080,217.168 287.940,217.098 285.477 C 217.028 283.015,216.971 285.140,216.972 290.200 M247.675 283.019 C 246.470 285.500,246.605 285.847,247.846 283.461 C 248.401 282.394,248.787 281.453,248.703 281.370 C 248.619 281.286,248.157 282.028,247.675 283.019 M134.000 284.400 C 134.666 285.720,135.302 286.800,135.412 286.800 C 135.522 286.800,135.066 285.720,134.400 284.400 C 133.734 283.080,133.098 282.000,132.988 282.000 C 132.878 282.000,133.334 283.080,134.000 284.400 M160.045 282.605 C 160.539 283.897,162.532 287.602,162.662 287.471 C 162.818 287.316,160.544 282.792,160.116 282.404 C 159.992 282.292,159.960 282.382,160.045 282.605 M192.944 288.800 C 192.944 290.890,193.012 291.745,193.094 290.700 C 193.176 289.655,193.176 287.945,193.094 286.900 C 193.012 285.855,192.944 286.710,192.944 288.800 M270.952 289.900 C 270.574 290.725,270.195 291.535,270.109 291.700 C 270.023 291.865,270.045 292.000,270.158 292.000 C 270.270 292.000,270.671 291.325,271.048 290.500 C 271.426 289.675,271.805 288.865,271.891 288.700 C 271.977 288.535,271.955 288.400,271.842 288.400 C 271.730 288.400,271.329 289.075,270.952 289.900 M136.445 289.005 C 136.939 290.297,138.932 294.002,139.062 293.871 C 139.218 293.716,136.944 289.192,136.516 288.804 C 136.392 288.692,136.360 288.782,136.445 289.005 M244.152 290.300 C 243.774 291.125,243.395 291.935,243.309 292.100 C 243.223 292.265,243.245 292.400,243.358 292.400 C 243.470 292.400,243.871 291.725,244.248 290.900 C 244.626 290.075,245.005 289.265,245.091 289.100 C 245.177 288.935,245.155 288.800,245.042 288.800 C 244.930 288.800,244.529 289.475,244.152 290.300 M164.800 292.000 C 165.466 293.320,166.102 294.400,166.212 294.400 C 166.322 294.400,165.866 293.320,165.200 292.000 C 164.534 290.680,163.898 289.600,163.788 289.600 C 163.678 289.600,164.134 290.680,164.800 292.000 M240.880 297.020 C 240.176 298.448,239.609 299.747,239.620 299.908 C 239.630 300.068,240.272 298.967,241.046 297.459 C 241.819 295.952,242.386 294.653,242.306 294.572 C 242.225 294.492,241.583 295.593,240.880 297.020 M193.372 304.200 C 193.372 309.260,193.429 311.275,193.499 308.677 C 193.569 306.080,193.568 301.940,193.498 299.477 C 193.428 297.015,193.371 299.140,193.372 304.200 M267.275 297.419 C 266.070 299.900,266.205 300.247,267.446 297.861 C 268.001 296.794,268.387 295.853,268.303 295.770 C 268.219 295.686,267.757 296.428,267.275 297.419 M140.800 297.600 C 141.249 298.480,141.706 299.200,141.816 299.200 C 141.926 299.200,141.649 298.480,141.200 297.600 C 140.751 296.720,140.294 296.000,140.184 296.000 C 140.074 296.000,140.351 296.720,140.800 297.600 M167.245 296.605 C 167.739 297.897,169.732 301.602,169.862 301.471 C 170.018 301.316,167.744 296.792,167.316 296.404 C 167.192 296.292,167.160 296.382,167.245 296.605 M238.161 302.700 C 237.557 303.965,236.993 305.135,236.908 305.300 C 236.823 305.465,236.840 305.600,236.947 305.600 C 237.054 305.600,237.635 304.565,238.239 303.300 C 238.843 302.035,239.407 300.865,239.492 300.700 C 239.577 300.535,239.560 300.400,239.453 300.400 C 239.346 300.400,238.765 301.435,238.161 302.700 M217.344 304.800 C 217.344 306.890,217.412 307.745,217.494 306.700 C 217.576 305.655,217.576 303.945,217.494 302.900 C 217.412 301.855,217.344 302.710,217.344 304.800 M264.161 303.900 C 263.557 305.165,262.993 306.335,262.908 306.500 C 262.823 306.665,262.840 306.800,262.947 306.800 C 263.054 306.800,263.635 305.765,264.239 304.500 C 264.843 303.235,265.407 302.065,265.492 301.900 C 265.577 301.735,265.560 301.600,265.453 301.600 C 265.346 301.600,264.765 302.635,264.161 303.900 M143.600 302.896 C 143.600 303.313,145.340 306.393,145.491 306.242 C 145.573 306.161,145.251 305.398,144.777 304.547 C 143.851 302.887,143.600 302.535,143.600 302.896 M172.000 306.000 C 172.666 307.320,173.302 308.400,173.412 308.400 C 173.522 308.400,173.066 307.320,172.400 306.000 C 171.734 304.680,171.098 303.600,170.988 303.600 C 170.878 303.600,171.334 304.680,172.000 306.000 M234.480 310.220 C 233.776 311.648,233.209 312.947,233.220 313.108 C 233.230 313.268,233.872 312.167,234.646 310.659 C 235.419 309.152,235.986 307.853,235.906 307.772 C 235.825 307.692,235.183 308.793,234.480 310.220 M147.600 310.800 C 148.266 312.120,148.902 313.200,149.012 313.200 C 149.122 313.200,148.666 312.120,148.000 310.800 C 147.334 309.480,146.698 308.400,146.588 308.400 C 146.478 308.400,146.934 309.480,147.600 310.800 M260.875 310.619 C 259.670 313.100,259.805 313.447,261.046 311.061 C 261.601 309.994,261.987 309.053,261.903 308.970 C 261.819 308.886,261.357 309.628,260.875 310.619 M174.445 310.605 C 174.939 311.897,176.932 315.602,177.062 315.471 C 177.218 315.316,174.944 310.792,174.516 310.404 C 174.392 310.292,174.360 310.382,174.445 310.605 M217.600 313.351 C 217.600 316.870,217.883 316.765,207.969 316.900 L 199.400 317.017 208.071 317.108 C 218.293 317.216,218.000 317.327,218.000 313.371 C 218.000 311.957,217.910 310.800,217.800 310.800 C 217.690 310.800,217.600 311.948,217.600 313.351 M193.647 315.857 C 193.594 317.263,194.139 317.633,196.133 317.543 C 197.288 317.491,197.259 317.465,195.802 317.243 C 194.429 317.034,194.169 316.831,193.950 315.800 L 193.695 314.600 193.647 315.857 M231.352 316.700 C 230.974 317.525,230.595 318.335,230.509 318.500 C 230.423 318.665,230.445 318.800,230.558 318.800 C 230.670 318.800,231.071 318.125,231.448 317.300 C 231.826 316.475,232.205 315.665,232.291 315.500 C 232.377 315.335,232.355 315.200,232.242 315.200 C 232.130 315.200,231.729 315.875,231.352 316.700 M257.352 317.900 C 256.974 318.725,256.595 319.535,256.509 319.700 C 256.423 319.865,256.445 320.000,256.558 320.000 C 256.670 320.000,257.071 319.325,257.448 318.500 C 257.826 317.675,258.205 316.865,258.291 316.700 C 258.377 316.535,258.355 316.400,258.242 316.400 C 258.130 316.400,257.729 317.075,257.352 317.900 M150.800 316.896 C 150.800 317.313,152.540 320.393,152.691 320.242 C 152.773 320.161,152.451 319.398,151.977 318.547 C 151.051 316.887,150.800 316.535,150.800 316.896 M179.200 320.000 C 179.866 321.320,180.502 322.400,180.612 322.400 C 180.722 322.400,180.266 321.320,179.600 320.000 C 178.934 318.680,178.298 317.600,178.188 317.600 C 178.078 317.600,178.534 318.680,179.200 320.000 M228.080 323.420 C 227.376 324.848,226.809 326.147,226.820 326.308 C 226.830 326.468,227.472 325.367,228.246 323.859 C 229.019 322.352,229.586 321.053,229.506 320.972 C 229.425 320.892,228.783 321.993,228.080 323.420 M254.475 323.819 C 253.270 326.300,253.405 326.647,254.646 324.261 C 255.201 323.194,255.587 322.253,255.503 322.170 C 255.419 322.086,254.957 322.828,254.475 323.819 M154.800 324.800 C 155.466 326.120,156.102 327.200,156.212 327.200 C 156.322 327.200,155.866 326.120,155.200 324.800 C 154.534 323.480,153.898 322.400,153.788 322.400 C 153.678 322.400,154.134 323.480,154.800 324.800 M181.600 324.496 C 181.600 324.913,183.340 327.993,183.491 327.842 C 183.573 327.761,183.251 326.998,182.777 326.147 C 181.851 324.487,181.600 324.135,181.600 324.496 M224.561 330.700 C 223.957 331.965,223.393 333.135,223.308 333.300 C 223.223 333.465,223.240 333.600,223.347 333.600 C 223.454 333.600,224.035 332.565,224.639 331.300 C 225.243 330.035,225.807 328.865,225.892 328.700 C 225.977 328.535,225.960 328.400,225.853 328.400 C 225.746 328.400,225.165 329.435,224.561 330.700 M157.245 329.405 C 157.739 330.697,159.732 334.402,159.862 334.271 C 160.018 334.116,157.744 329.592,157.316 329.204 C 157.192 329.092,157.160 329.182,157.245 329.405 M250.561 331.900 C 249.957 333.165,249.393 334.335,249.308 334.500 C 249.223 334.665,249.240 334.800,249.347 334.800 C 249.454 334.800,250.035 333.765,250.639 332.500 C 251.243 331.235,251.807 330.065,251.892 329.900 C 251.977 329.735,251.960 329.600,251.853 329.600 C 251.746 329.600,251.165 330.635,250.561 331.900 M186.400 334.000 C 187.066 335.320,187.702 336.400,187.812 336.400 C 187.922 336.400,187.466 335.320,186.800 334.000 C 186.134 332.680,185.498 331.600,185.388 331.600 C 185.278 331.600,185.734 332.680,186.400 334.000 M247.680 337.820 C 246.976 339.248,246.409 340.547,246.420 340.708 C 246.430 340.868,247.072 339.767,247.846 338.259 C 248.619 336.752,249.186 335.453,249.106 335.372 C 249.025 335.292,248.383 336.393,247.680 337.820 M221.275 337.419 C 220.070 339.900,220.205 340.247,221.446 337.861 C 222.001 336.794,222.387 335.853,222.303 335.770 C 222.219 335.686,221.757 336.428,221.275 337.419 M162.000 338.800 C 162.666 340.120,163.302 341.200,163.412 341.200 C 163.522 341.200,163.066 340.120,162.400 338.800 C 161.734 337.480,161.098 336.400,160.988 336.400 C 160.878 336.400,161.334 337.480,162.000 338.800 M188.845 338.605 C 189.339 339.897,191.332 343.602,191.462 343.471 C 191.618 343.316,189.344 338.792,188.916 338.404 C 188.792 338.292,188.760 338.382,188.845 338.605 M244.552 344.300 C 244.174 345.125,243.795 345.935,243.709 346.100 C 243.623 346.265,243.645 346.400,243.758 346.400 C 243.870 346.400,244.271 345.725,244.648 344.900 C 245.026 344.075,245.405 343.265,245.491 343.100 C 245.577 342.935,245.555 342.800,245.442 342.800 C 245.330 342.800,244.929 343.475,244.552 344.300 M164.445 343.405 C 164.939 344.697,166.932 348.402,167.062 348.271 C 167.218 348.116,164.944 343.592,164.516 343.204 C 164.392 343.092,164.360 343.182,164.445 343.405 M217.752 344.700 C 217.374 345.525,216.995 346.335,216.909 346.500 C 216.823 346.665,216.845 346.800,216.958 346.800 C 217.070 346.800,217.471 346.125,217.848 345.300 C 218.226 344.475,218.605 343.665,218.691 343.500 C 218.777 343.335,218.755 343.200,218.642 343.200 C 218.530 343.200,218.129 343.875,217.752 344.700 M193.200 347.200 C 193.649 348.080,194.106 348.800,194.216 348.800 C 194.326 348.800,194.049 348.080,193.600 347.200 C 193.151 346.320,192.694 345.600,192.584 345.600 C 192.474 345.600,192.751 346.320,193.200 347.200 M214.480 351.420 C 213.776 352.848,213.209 354.147,213.220 354.308 C 213.230 354.468,213.872 353.367,214.646 351.859 C 215.419 350.352,215.986 349.053,215.906 348.972 C 215.825 348.892,215.183 349.993,214.480 351.420 M240.875 351.819 C 239.670 354.300,239.805 354.647,241.046 352.261 C 241.601 351.194,241.987 350.253,241.903 350.170 C 241.819 350.086,241.357 350.828,240.875 351.819 M169.200 352.800 C 169.866 354.120,170.502 355.200,170.612 355.200 C 170.722 355.200,170.266 354.120,169.600 352.800 C 168.934 351.480,168.298 350.400,168.188 350.400 C 168.078 350.400,168.534 351.480,169.200 352.800 M196.000 352.496 C 196.000 352.913,197.740 355.993,197.891 355.842 C 197.973 355.761,197.651 354.998,197.177 354.147 C 196.251 352.487,196.000 352.135,196.000 352.496 M211.761 357.100 C 211.157 358.365,210.593 359.535,210.508 359.700 C 210.423 359.865,210.440 360.000,210.547 360.000 C 210.654 360.000,211.235 358.965,211.839 357.700 C 212.443 356.435,213.007 355.265,213.092 355.100 C 213.177 354.935,213.160 354.800,213.053 354.800 C 212.946 354.800,212.365 355.835,211.761 357.100 M237.761 358.300 C 237.157 359.565,236.593 360.735,236.508 360.900 C 236.423 361.065,236.440 361.200,236.547 361.200 C 236.654 361.200,237.235 360.165,237.839 358.900 C 238.443 357.635,239.007 356.465,239.092 356.300 C 239.177 356.135,239.160 356.000,239.053 356.000 C 238.946 356.000,238.365 357.035,237.761 358.300 M171.600 357.296 C 171.600 357.713,173.340 360.793,173.491 360.642 C 173.573 360.561,173.251 359.798,172.777 358.947 C 171.851 357.287,171.600 356.935,171.600 357.296 M200.000 360.400 C 200.666 361.720,201.302 362.800,201.412 362.800 C 201.522 362.800,201.066 361.720,200.400 360.400 C 199.734 359.080,199.098 358.000,198.988 358.000 C 198.878 358.000,199.334 359.080,200.000 360.400 M234.080 365.820 C 233.376 367.248,232.809 368.547,232.820 368.708 C 232.830 368.868,233.472 367.767,234.246 366.259 C 235.019 364.752,235.586 363.453,235.506 363.372 C 235.425 363.292,234.783 364.393,234.080 365.820 M207.675 365.419 C 206.470 367.900,206.605 368.247,207.846 365.861 C 208.401 364.794,208.787 363.853,208.703 363.770 C 208.619 363.686,208.157 364.428,207.675 365.419 M176.400 366.800 C 177.066 368.120,177.702 369.200,177.812 369.200 C 177.922 369.200,177.466 368.120,176.800 366.800 C 176.134 365.480,175.498 364.400,175.388 364.400 C 175.278 364.400,175.734 365.480,176.400 366.800 M203.200 366.588 C 203.200 366.859,204.818 369.739,205.193 370.135 C 205.367 370.319,205.648 370.246,205.817 369.973 C 205.999 369.678,205.959 369.578,205.719 369.727 C 205.496 369.864,204.900 369.172,204.394 368.188 C 203.556 366.559,203.200 366.082,203.200 366.588 M230.952 372.300 C 230.574 373.125,230.195 373.935,230.109 374.100 C 230.023 374.265,230.045 374.400,230.158 374.400 C 230.270 374.400,230.671 373.725,231.048 372.900 C 231.426 372.075,231.805 371.265,231.891 371.100 C 231.977 370.935,231.955 370.800,231.842 370.800 C 231.730 370.800,231.329 371.475,230.952 372.300 M178.845 371.405 C 179.339 372.697,181.332 376.402,181.462 376.271 C 181.618 376.116,179.344 371.592,178.916 371.204 C 178.792 371.092,178.760 371.182,178.845 371.405 M227.275 379.819 C 226.070 382.300,226.205 382.647,227.446 380.261 C 228.001 379.194,228.387 378.253,228.303 378.170 C 228.219 378.086,227.757 378.828,227.275 379.819 M183.200 380.000 C 183.649 380.880,184.106 381.600,184.216 381.600 C 184.326 381.600,184.049 380.880,183.600 380.000 C 183.151 379.120,182.694 378.400,182.584 378.400 C 182.474 378.400,182.751 379.120,183.200 380.000 M185.245 383.805 C 185.739 385.097,187.732 388.802,187.862 388.671 C 188.018 388.516,185.744 383.992,185.316 383.604 C 185.192 383.492,185.160 383.582,185.245 383.805 M224.161 386.300 C 223.557 387.565,222.993 388.735,222.908 388.900 C 222.823 389.065,222.840 389.200,222.947 389.200 C 223.054 389.200,223.635 388.165,224.239 386.900 C 224.843 385.635,225.407 384.465,225.492 384.300 C 225.577 384.135,225.560 384.000,225.453 384.000 C 225.346 384.000,224.765 385.035,224.161 386.300 M190.000 393.200 C 190.666 394.520,191.302 395.600,191.412 395.600 C 191.522 395.600,191.066 394.520,190.400 393.200 C 189.734 391.880,189.098 390.800,188.988 390.800 C 188.878 390.800,189.334 391.880,190.000 393.200 M220.875 393.019 C 219.670 395.500,219.805 395.847,221.046 393.461 C 221.601 392.394,221.987 391.453,221.903 391.370 C 221.819 391.286,221.357 392.028,220.875 393.019 M218.229 398.461 C 217.883 399.155,217.600 399.825,217.600 399.950 C 217.600 400.297,218.633 398.694,218.921 397.900 C 219.336 396.755,218.906 397.104,218.229 398.461 M206.346 398.216 C 207.086 398.537,207.806 398.794,207.946 398.786 C 208.466 398.757,206.176 397.628,205.600 397.630 C 205.270 397.631,205.606 397.894,206.346 398.216 M203.100 398.827 C 202.275 399.263,201.600 399.708,201.600 399.818 C 201.600 399.927,202.320 399.649,203.200 399.200 C 204.080 398.751,204.800 398.297,204.800 398.192 C 204.800 397.930,204.797 397.931,203.100 398.827 " stroke="none" fill="#cbf1f9" fill-rule="evenodd"></path></g></svg>